<?xml version="1.0" encoding="UTF-8"?>
<!DOCTYPE svg PUBLIC "-//W3C//DTD SVG 1.1//EN" "http://www.w3.org/Graphics/SVG/1.1/DTD/svg11.dtd">
<svg xmlns="http://www.w3.org/2000/svg" version="1.1" width="500px" height="500px" style="shape-rendering:geometricPrecision; text-rendering:geometricPrecision; image-rendering:optimizeQuality; fill-rule:evenodd; clip-rule:evenodd" xmlns:xlink="http://www.w3.org/1999/xlink">
<g><path style="opacity:0.955" fill="#4dfefb" d="M 301.5,109.5 C 301.5,115.5 301.5,121.5 301.5,127.5C 300.167,127.5 298.833,127.5 297.5,127.5C 297.5,121.833 297.5,116.167 297.5,110.5C 298.708,109.766 300.041,109.433 301.5,109.5 Z"/></g>
<g><path style="opacity:0.941" fill="#47fefb" d="M 301.5,109.5 C 302.791,109.263 303.791,109.596 304.5,110.5C 304.5,116.167 304.5,121.833 304.5,127.5C 303.5,127.5 302.5,127.5 301.5,127.5C 301.5,121.5 301.5,115.5 301.5,109.5 Z"/></g>
<g><path style="opacity:0.945" fill="#60fefc" d="M 291.5,110.5 C 291.5,116.833 291.5,123.167 291.5,129.5C 290.041,129.433 288.708,129.766 287.5,130.5C 287.5,124.167 287.5,117.833 287.5,111.5C 288.959,111.567 290.292,111.234 291.5,110.5 Z"/></g>
<g><path style="opacity:0.945" fill="#5afefb" d="M 291.5,110.5 C 292.5,110.5 293.5,110.5 294.5,110.5C 294.5,116.5 294.5,122.5 294.5,128.5C 293.391,128.557 292.391,128.89 291.5,129.5C 291.5,123.167 291.5,116.833 291.5,110.5 Z"/></g>
<g><path style="opacity:0.953" fill="#54fefb" d="M 294.5,110.5 C 295.5,110.5 296.5,110.5 297.5,110.5C 297.5,116.167 297.5,121.833 297.5,127.5C 296.791,128.404 295.791,128.737 294.5,128.5C 294.5,122.5 294.5,116.5 294.5,110.5 Z"/></g>
<g><path style="opacity:0.979" fill="#40fefb" d="M 304.5,110.5 C 305.5,110.5 306.5,110.5 307.5,110.5C 307.5,116.5 307.5,122.5 307.5,128.5C 306.609,127.89 305.609,127.557 304.5,127.5C 304.5,121.833 304.5,116.167 304.5,110.5 Z"/></g>
<g><path style="opacity:0.952" fill="#3bfefb" d="M 307.5,110.5 C 308.791,110.263 309.791,110.596 310.5,111.5C 310.5,117.167 310.5,122.833 310.5,128.5C 309.5,128.5 308.5,128.5 307.5,128.5C 307.5,122.5 307.5,116.5 307.5,110.5 Z"/></g>
<g><path style="opacity:0.918" fill="#a6fffd" d="M 197.5,111.5 C 197.5,116.833 197.5,122.167 197.5,127.5C 197.158,128.338 196.492,128.672 195.5,128.5C 195.5,123.167 195.5,117.833 195.5,112.5C 195.842,111.662 196.508,111.328 197.5,111.5 Z"/></g>
<g><path style="opacity:0.947" fill="#9ffffd" d="M 197.5,111.5 C 198.5,111.5 199.5,111.5 200.5,111.5C 200.5,116.833 200.5,122.167 200.5,127.5C 199.5,127.5 198.5,127.5 197.5,127.5C 197.5,122.167 197.5,116.833 197.5,111.5 Z"/></g>
<g><path style="opacity:0.961" fill="#98fffc" d="M 200.5,111.5 C 201.167,111.5 201.833,111.5 202.5,111.5C 202.5,116.5 202.5,121.5 202.5,126.5C 201.833,126.833 201.167,127.167 200.5,127.5C 200.5,122.167 200.5,116.833 200.5,111.5 Z"/></g>
<g><path style="opacity:0.993" fill="#93fffc" d="M 202.5,111.5 C 203.167,111.5 203.833,111.5 204.5,111.5C 204.5,116.5 204.5,121.5 204.5,126.5C 203.833,126.5 203.167,126.5 202.5,126.5C 202.5,121.5 202.5,116.5 202.5,111.5 Z"/></g>
<g><path style="opacity:0.943" fill="#8dfffc" d="M 204.5,111.5 C 205.167,111.5 205.833,111.5 206.5,111.5C 206.5,116.833 206.5,122.167 206.5,127.5C 205.508,127.672 204.842,127.338 204.5,126.5C 204.5,121.5 204.5,116.5 204.5,111.5 Z"/></g>
<g><path style="opacity:0.943" fill="#87fffc" d="M 206.5,111.5 C 207.167,111.5 207.833,111.5 208.5,111.5C 208.5,116.833 208.5,122.167 208.5,127.5C 207.833,127.5 207.167,127.5 206.5,127.5C 206.5,122.167 206.5,116.833 206.5,111.5 Z"/></g>
<g><path style="opacity:0.942" fill="#80fefd" d="M 208.5,111.5 C 209.5,111.5 210.5,111.5 211.5,111.5C 211.5,116.833 211.5,122.167 211.5,127.5C 210.5,127.5 209.5,127.5 208.5,127.5C 208.5,122.167 208.5,116.833 208.5,111.5 Z"/></g>
<g><path style="opacity:0.922" fill="#79fefc" d="M 211.5,111.5 C 212.167,111.5 212.833,111.5 213.5,111.5C 213.5,117.167 213.5,122.833 213.5,128.5C 212.833,128.167 212.167,127.833 211.5,127.5C 211.5,122.167 211.5,116.833 211.5,111.5 Z"/></g>
<g><path style="opacity:0.93" fill="#73fefc" d="M 213.5,111.5 C 214.167,111.833 214.833,112.167 215.5,112.5C 215.5,117.833 215.5,123.167 215.5,128.5C 214.833,128.5 214.167,128.5 213.5,128.5C 213.5,122.833 213.5,117.167 213.5,111.5 Z"/></g>
<g><path style="opacity:0.943" fill="#67fefc" d="M 287.5,111.5 C 287.5,117.833 287.5,124.167 287.5,130.5C 286.391,130.557 285.391,130.89 284.5,131.5C 284.5,125.167 284.5,118.833 284.5,112.5C 285.609,112.443 286.609,112.11 287.5,111.5 Z"/></g>
<g><path style="opacity:0.943" fill="#34fefb" d="M 310.5,111.5 C 312.099,111.232 313.432,111.566 314.5,112.5C 314.5,118.5 314.5,124.5 314.5,130.5C 312.847,130.34 311.514,129.674 310.5,128.5C 310.5,122.833 310.5,117.167 310.5,111.5 Z"/></g>
<g><path style="opacity:0.928" fill="#b2fffd" d="M 193.5,112.5 C 193.5,118.167 193.5,123.833 193.5,129.5C 193.158,130.338 192.492,130.672 191.5,130.5C 191.5,124.833 191.5,119.167 191.5,113.5C 191.842,112.662 192.508,112.328 193.5,112.5 Z"/></g>
<g><path style="opacity:0.947" fill="#acfffd" d="M 193.5,112.5 C 194.167,112.5 194.833,112.5 195.5,112.5C 195.5,117.833 195.5,123.167 195.5,128.5C 195.158,129.338 194.492,129.672 193.5,129.5C 193.5,123.833 193.5,118.167 193.5,112.5 Z"/></g>
<g><path style="opacity:0.968" fill="#6efefc" d="M 215.5,112.5 C 216.167,112.5 216.833,112.5 217.5,112.5C 217.5,117.833 217.5,123.167 217.5,128.5C 216.833,128.5 216.167,128.5 215.5,128.5C 215.5,123.167 215.5,117.833 215.5,112.5 Z"/></g>
<g><path style="opacity:0.936" fill="#66fefc" d="M 217.5,112.5 C 218.5,112.5 219.5,112.5 220.5,112.5C 220.5,118.167 220.5,123.833 220.5,129.5C 219.391,129.443 218.391,129.11 217.5,128.5C 217.5,123.167 217.5,117.833 217.5,112.5 Z"/></g>
<g><path style="opacity:0.944" fill="#60fefc" d="M 220.5,112.5 C 221.167,112.833 221.833,113.167 222.5,113.5C 222.5,118.833 222.5,124.167 222.5,129.5C 221.833,129.5 221.167,129.5 220.5,129.5C 220.5,123.833 220.5,118.167 220.5,112.5 Z"/></g>
<g><path style="opacity:0.933" fill="#6dfefc" d="M 284.5,112.5 C 284.5,118.833 284.5,125.167 284.5,131.5C 283.609,132.11 282.609,132.443 281.5,132.5C 281.5,126.5 281.5,120.5 281.5,114.5C 282.29,113.599 283.29,112.932 284.5,112.5 Z"/></g>
<g><path style="opacity:0.939" fill="#bdfffd" d="M 189.5,113.5 C 189.5,119.833 189.5,126.167 189.5,132.5C 189.167,133.5 188.5,134.167 187.5,134.5C 187.5,127.833 187.5,121.167 187.5,114.5C 188.167,114.167 188.833,113.833 189.5,113.5 Z"/></g>
<g><path style="opacity:0.95" fill="#b7fffd" d="M 189.5,113.5 C 190.167,113.5 190.833,113.5 191.5,113.5C 191.5,119.167 191.5,124.833 191.5,130.5C 191.167,131.5 190.5,132.167 189.5,132.5C 189.5,126.167 189.5,119.833 189.5,113.5 Z"/></g>
<g><path style="opacity:0.943" fill="#5afefb" d="M 222.5,113.5 C 223.167,113.5 223.833,113.5 224.5,113.5C 224.5,119.167 224.5,124.833 224.5,130.5C 223.833,130.167 223.167,129.833 222.5,129.5C 222.5,124.167 222.5,118.833 222.5,113.5 Z"/></g>
<g><path style="opacity:0.95" fill="#54fefb" d="M 224.5,113.5 C 225.167,113.833 225.833,114.167 226.5,114.5C 226.5,119.833 226.5,125.167 226.5,130.5C 225.833,130.5 225.167,130.5 224.5,130.5C 224.5,124.833 224.5,119.167 224.5,113.5 Z"/></g>
<g><path style="opacity:0.934" fill="#2afefb" d="M 314.5,112.5 C 316.703,112.604 318.703,113.27 320.5,114.5C 320.5,121.833 320.5,129.167 320.5,136.5C 318.167,134.833 316.167,132.833 314.5,130.5C 314.5,124.5 314.5,118.5 314.5,112.5 Z"/></g>
<g><path style="opacity:0.924" fill="#c4fffd" d="M 187.5,114.5 C 187.5,121.167 187.5,127.833 187.5,134.5C 186.737,136.368 185.737,138.035 184.5,139.5C 184.5,131.833 184.5,124.167 184.5,116.5C 184.973,115.094 185.973,114.427 187.5,114.5 Z"/></g>
<g><path style="opacity:0.942" fill="#4dfefb" d="M 226.5,114.5 C 227.5,114.5 228.5,114.5 229.5,114.5C 229.5,120.167 229.5,125.833 229.5,131.5C 228.391,131.443 227.391,131.11 226.5,130.5C 226.5,125.167 226.5,119.833 226.5,114.5 Z"/></g>
<g><path style="opacity:0.951" fill="#46fefb" d="M 229.5,114.5 C 230.167,114.833 230.833,115.167 231.5,115.5C 231.5,120.833 231.5,126.167 231.5,131.5C 230.833,131.5 230.167,131.5 229.5,131.5C 229.5,125.833 229.5,120.167 229.5,114.5 Z"/></g>
<g><path style="opacity:0.952" fill="#73fefc" d="M 281.5,114.5 C 281.5,120.5 281.5,126.5 281.5,132.5C 280.486,133.674 279.153,134.34 277.5,134.5C 277.5,128.5 277.5,122.5 277.5,116.5C 278.514,115.326 279.847,114.66 281.5,114.5 Z"/></g>
<g><path style="opacity:0.936" fill="#22fefb" d="M 320.5,114.5 C 321.71,114.932 322.71,115.599 323.5,116.5C 323.5,124.833 323.5,133.167 323.5,141.5C 322.263,140.035 321.263,138.368 320.5,136.5C 320.5,129.167 320.5,121.833 320.5,114.5 Z"/></g>
<g><path style="opacity:0.952" fill="#3dfefb" d="M 231.5,115.5 C 232.959,115.433 234.292,115.766 235.5,116.5C 235.5,121.833 235.5,127.167 235.5,132.5C 234.041,132.567 232.708,132.234 231.5,131.5C 231.5,126.167 231.5,120.833 231.5,115.5 Z"/></g>
<g><path style="opacity:0.909" fill="#cbfffd" d="M 184.5,116.5 C 184.5,124.167 184.5,131.833 184.5,139.5C 184.073,142.01 183.407,144.343 182.5,146.5C 182.5,136.833 182.5,127.167 182.5,117.5C 182.842,116.662 183.508,116.328 184.5,116.5 Z"/></g>
<g><path style="opacity:0.936" fill="#30fefb" d="M 235.5,116.5 C 237.292,116.366 238.958,116.699 240.5,117.5C 240.5,123.167 240.5,128.833 240.5,134.5C 238.694,133.976 237.028,133.309 235.5,132.5C 235.5,127.167 235.5,121.833 235.5,116.5 Z"/></g>
<g><path style="opacity:0.959" fill="#7afefc" d="M 277.5,116.5 C 277.5,122.5 277.5,128.5 277.5,134.5C 276.71,135.401 275.71,136.068 274.5,136.5C 274.5,130.167 274.5,123.833 274.5,117.5C 275.391,116.89 276.391,116.557 277.5,116.5 Z"/></g>
<g><path style="opacity:0.962" fill="#1bfefa" d="M 323.5,116.5 C 325.23,117.026 326.564,118.026 327.5,119.5C 327.5,145.5 327.5,171.5 327.5,197.5C 325.833,196.5 324.5,195.167 323.5,193.5C 323.5,182.5 323.5,171.5 323.5,160.5C 324.688,154.156 324.688,147.822 323.5,141.5C 323.5,133.167 323.5,124.833 323.5,116.5 Z"/></g>
<g><path style="opacity:0.981" fill="#d1fffd" d="M 182.5,117.5 C 182.5,127.167 182.5,136.833 182.5,146.5C 182.5,148.167 182.5,149.833 182.5,151.5C 182.5,164.833 182.5,178.167 182.5,191.5C 181.599,190.71 180.932,189.71 180.5,188.5C 180.5,165.167 180.5,141.833 180.5,118.5C 180.842,117.662 181.508,117.328 182.5,117.5 Z"/></g>
<g><path style="opacity:0.928" fill="#80fefd" d="M 274.5,117.5 C 274.5,123.833 274.5,130.167 274.5,136.5C 273.71,137.401 272.71,138.068 271.5,138.5C 271.5,132.167 271.5,125.833 271.5,119.5C 272.29,118.599 273.29,117.932 274.5,117.5 Z"/></g>
<g><path style="opacity:0.979" fill="#d6fffd" d="M 180.5,118.5 C 180.5,141.833 180.5,165.167 180.5,188.5C 179.094,188.027 178.427,187.027 178.5,185.5C 178.5,163.5 178.5,141.5 178.5,119.5C 179.167,119.167 179.833,118.833 180.5,118.5 Z"/></g>
<g><path style="opacity:0.919" fill="#23fefb" d="M 240.5,117.5 C 241.833,117.833 243.167,118.167 244.5,118.5C 244.5,122.833 244.5,127.167 244.5,131.5C 243.738,133.262 242.404,134.262 240.5,134.5C 240.5,128.833 240.5,123.167 240.5,117.5 Z"/></g>
<g><path style="opacity:0.968" fill="#dcfffd" d="M 178.5,119.5 C 178.5,141.5 178.5,163.5 178.5,185.5C 177.094,185.027 176.427,184.027 176.5,182.5C 176.5,162.167 176.5,141.833 176.5,121.5C 176.833,120.5 177.5,119.833 178.5,119.5 Z"/></g>
<g><path style="opacity:0.838" fill="#12fefa" d="M 244.5,118.5 C 248.347,119.21 252.014,120.376 255.5,122C 252.175,125.647 248.508,128.814 244.5,131.5C 244.5,127.167 244.5,122.833 244.5,118.5 Z"/></g>
<g><path style="opacity:0.933" fill="#86fffc" d="M 271.5,119.5 C 271.5,125.833 271.5,132.167 271.5,138.5C 270.609,139.11 269.609,139.443 268.5,139.5C 268.5,133.5 268.5,127.5 268.5,121.5C 269.29,120.599 270.29,119.932 271.5,119.5 Z"/></g>
<g><path style="opacity:0.98" fill="#15fefa" d="M 327.5,119.5 C 328.833,120.167 329.833,121.167 330.5,122.5C 330.5,147.5 330.5,172.5 330.5,197.5C 329.754,201.31 328.754,201.31 327.5,197.5C 327.5,171.5 327.5,145.5 327.5,119.5 Z"/></g>
<g><path style="opacity:0.967" fill="#e3fffe" d="M 176.5,121.5 C 176.5,141.833 176.5,162.167 176.5,182.5C 174.75,181.341 173.75,179.674 173.5,177.5C 173.5,160.167 173.5,142.833 173.5,125.5C 174.026,123.77 175.026,122.436 176.5,121.5 Z"/></g>
<g><path style="opacity:0.932" fill="#8cfffc" d="M 268.5,121.5 C 268.5,127.5 268.5,133.5 268.5,139.5C 267.486,140.674 266.153,141.34 264.5,141.5C 264.5,135.833 264.5,130.167 264.5,124.5C 265.436,123.026 266.77,122.026 268.5,121.5 Z"/></g>
<g><path style="opacity:0.957" fill="#0cfefa" d="M 330.5,122.5 C 334.238,125.626 336.738,129.626 338,134.5C 341.193,146.146 341.193,157.813 338,169.5C 336.097,179.12 333.597,188.453 330.5,197.5C 330.5,172.5 330.5,147.5 330.5,122.5 Z"/></g>
<g><path style="opacity:0.92" fill="#93fffc" d="M 264.5,124.5 C 264.5,130.167 264.5,135.833 264.5,141.5C 263.71,142.401 262.71,143.068 261.5,143.5C 261.5,137.833 261.5,132.167 261.5,126.5C 261.973,125.094 262.973,124.427 264.5,124.5 Z"/></g>
<g><path style="opacity:0.963" fill="#eafffe" d="M 173.5,125.5 C 173.5,142.833 173.5,160.167 173.5,177.5C 172.094,177.027 171.427,176.027 171.5,174.5C 171.5,159.167 171.5,143.833 171.5,128.5C 171.427,126.973 172.094,125.973 173.5,125.5 Z"/></g>
<g><path style="opacity:0.934" fill="#99fffc" d="M 261.5,126.5 C 261.5,132.167 261.5,137.833 261.5,143.5C 260.609,144.11 259.609,144.443 258.5,144.5C 258.5,139.167 258.5,133.833 258.5,128.5C 259.29,127.599 260.29,126.932 261.5,126.5 Z"/></g>
<g><path style="opacity:0.948" fill="#f0fffe" d="M 171.5,128.5 C 171.5,143.833 171.5,159.167 171.5,174.5C 170.326,173.486 169.66,172.153 169.5,170.5C 169.5,157.5 169.5,144.5 169.5,131.5C 169.427,129.973 170.094,128.973 171.5,128.5 Z"/></g>
<g><path style="opacity:0.927" fill="#9ffffd" d="M 258.5,128.5 C 258.5,133.833 258.5,139.167 258.5,144.5C 257.486,145.674 256.153,146.34 254.5,146.5C 254.5,141.5 254.5,136.5 254.5,131.5C 255.795,130.512 257.128,129.512 258.5,128.5 Z"/></g>
<g><path style="opacity:0.923" fill="#f5fffe" d="M 169.5,131.5 C 169.5,144.5 169.5,157.5 169.5,170.5C 168.262,168.786 167.595,166.786 167.5,164.5C 167.5,155.167 167.5,145.833 167.5,136.5C 167.796,134.597 168.463,132.93 169.5,131.5 Z"/></g>
<g><path style="opacity:0.933" fill="#a5fffd" d="M 254.5,131.5 C 254.5,136.5 254.5,141.5 254.5,146.5C 253.71,147.401 252.71,148.068 251.5,148.5C 251.5,143.5 251.5,138.5 251.5,133.5C 252.5,132.833 253.5,132.167 254.5,131.5 Z"/></g>
<g><path style="opacity:0.914" fill="#abfffd" d="M 251.5,133.5 C 251.5,138.5 251.5,143.5 251.5,148.5C 250.609,149.11 249.609,149.443 248.5,149.5C 248.5,145.167 248.5,140.833 248.5,136.5C 249.167,135.167 250.167,134.167 251.5,133.5 Z"/></g>
<g><path style="opacity:0.73" fill="#fbfffe" d="M 167.5,136.5 C 167.5,145.833 167.5,155.167 167.5,164.5C 163.5,155.167 163.5,145.833 167.5,136.5 Z"/></g>
<g><path style="opacity:0.909" fill="#b2fffd" d="M 248.5,136.5 C 248.5,140.833 248.5,145.167 248.5,149.5C 247.486,150.674 246.153,151.34 244.5,151.5C 244.5,147.5 244.5,143.5 244.5,139.5C 245.262,137.738 246.596,136.738 248.5,136.5 Z"/></g>
<g><path style="opacity:0.905" fill="#b9fffd" d="M 244.5,139.5 C 244.5,143.5 244.5,147.5 244.5,151.5C 243.71,152.401 242.71,153.068 241.5,153.5C 241.5,149.5 241.5,145.5 241.5,141.5C 242.29,140.599 243.29,139.932 244.5,139.5 Z"/></g>
<g><path style="opacity:0.921" fill="#befffd" d="M 241.5,141.5 C 241.5,145.5 241.5,149.5 241.5,153.5C 240.609,154.11 239.609,154.443 238.5,154.5C 238.5,150.833 238.5,147.167 238.5,143.5C 239.5,142.833 240.5,142.167 241.5,141.5 Z"/></g>
<g><path style="opacity:0.881" fill="#c4fffd" d="M 238.5,143.5 C 238.5,147.167 238.5,150.833 238.5,154.5C 237.71,155.401 236.71,156.068 235.5,156.5C 235.5,153.167 235.5,149.833 235.5,146.5C 236.167,145.167 237.167,144.167 238.5,143.5 Z"/></g>
<g><path style="opacity:0.889" fill="#cbfffd" d="M 235.5,146.5 C 235.5,149.833 235.5,153.167 235.5,156.5C 234.167,157.167 232.833,157.833 231.5,158.5C 231.5,155.5 231.5,152.5 231.5,149.5C 232.436,148.026 233.77,147.026 235.5,146.5 Z"/></g>
<g><path style="opacity:0.897" fill="#d1fffd" d="M 231.5,149.5 C 231.5,152.5 231.5,155.5 231.5,158.5C 230.609,159.11 229.609,159.443 228.5,159.5C 228.5,156.833 228.5,154.167 228.5,151.5C 229.5,150.833 230.5,150.167 231.5,149.5 Z"/></g>
<g><path style="opacity:0.889" fill="#cbfffd" d="M 182.5,151.5 C 183.525,154.974 184.192,158.64 184.5,162.5C 184.5,173.167 184.5,183.833 184.5,194.5C 183.599,193.71 182.932,192.71 182.5,191.5C 182.5,178.167 182.5,164.833 182.5,151.5 Z"/></g>
<g><path style="opacity:0.84" fill="#d7fffd" d="M 228.5,151.5 C 228.5,154.167 228.5,156.833 228.5,159.5C 227.71,160.401 226.71,161.068 225.5,161.5C 225.5,159.167 225.5,156.833 225.5,154.5C 226.167,153.167 227.167,152.167 228.5,151.5 Z"/></g>
<g><path style="opacity:0.915" fill="#fefffe" d="M 340.5,241.5 C 333.833,239.167 327.167,236.833 320.5,234.5C 306.395,206.96 292.895,179.293 280,151.5C 295.815,170.469 311.148,189.803 326,209.5C 333.284,219.066 338.117,229.733 340.5,241.5 Z"/></g>
<g><path style="opacity:0.883" fill="#ddfffe" d="M 225.5,154.5 C 225.5,156.833 225.5,159.167 225.5,161.5C 224.609,162.11 223.609,162.443 222.5,162.5C 222.5,160.5 222.5,158.5 222.5,156.5C 223.5,155.833 224.5,155.167 225.5,154.5 Z"/></g>
<g><path style="opacity:0.796" fill="#e3fffe" d="M 222.5,156.5 C 222.5,158.5 222.5,160.5 222.5,162.5C 221.486,163.674 220.153,164.34 218.5,164.5C 218.5,163.167 218.5,161.833 218.5,160.5C 219.5,158.833 220.833,157.5 222.5,156.5 Z"/></g>
<g><path style="opacity:0.75" fill="#ebfffe" d="M 218.5,160.5 C 218.5,161.833 218.5,163.167 218.5,164.5C 217.71,165.401 216.71,166.068 215.5,166.5C 215.5,165.167 215.5,163.833 215.5,162.5C 215.973,161.094 216.973,160.427 218.5,160.5 Z"/></g>
<g><path style="opacity:0.877" fill="#23fefb" d="M 323.5,160.5 C 323.5,171.5 323.5,182.5 323.5,193.5C 321.299,190.979 318.966,188.479 316.5,186C 319.245,177.511 321.578,169.011 323.5,160.5 Z"/></g>
<g><path style="opacity:0.931" fill="#c4fffd" d="M 184.5,162.5 C 185.871,164.936 186.871,167.603 187.5,170.5C 187.5,179.833 187.5,189.167 187.5,198.5C 186.512,197.205 185.512,195.872 184.5,194.5C 184.5,183.833 184.5,173.167 184.5,162.5 Z"/></g>
<g><path style="opacity:0.757" fill="#f0fffe" d="M 215.5,162.5 C 215.5,163.833 215.5,165.167 215.5,166.5C 214.609,167.11 213.609,167.443 212.5,167.5C 212.5,166.833 212.5,166.167 212.5,165.5C 213.167,164.167 214.167,163.167 215.5,162.5 Z"/></g>
<g><path style="opacity:0.587" fill="#f6fffe" d="M 212.5,165.5 C 212.5,166.167 212.5,166.833 212.5,167.5C 211.71,168.401 210.71,169.068 209.5,169.5C 209.5,168.833 209.5,168.167 209.5,167.5C 209.973,166.094 210.973,165.427 212.5,165.5 Z"/></g>
<g><path style="opacity:0.456" fill="#fbfffe" d="M 209.5,167.5 C 209.5,168.167 209.5,168.833 209.5,169.5C 208.609,170.11 207.609,170.443 206.5,170.5C 207.167,169.167 208.167,168.167 209.5,167.5 Z"/></g>
<g><path style="opacity:0.943" fill="#bdfffd" d="M 187.5,170.5 C 188.906,170.973 189.573,171.973 189.5,173.5C 189.5,182.5 189.5,191.5 189.5,200.5C 188.5,200.167 187.833,199.5 187.5,198.5C 187.5,189.167 187.5,179.833 187.5,170.5 Z"/></g>
<g><path style="opacity:0.031" fill="#fefffe" d="M 206.5,170.5 C 205.833,171.167 205.833,171.167 206.5,170.5 Z"/></g>
<g><path style="opacity:0.919" fill="#b7fffd" d="M 189.5,173.5 C 190.674,174.514 191.34,175.847 191.5,177.5C 191.5,186.167 191.5,194.833 191.5,203.5C 190.094,203.027 189.427,202.027 189.5,200.5C 189.5,191.5 189.5,182.5 189.5,173.5 Z"/></g>
<g><path style="opacity:0.941" fill="#b2fffd" d="M 191.5,177.5 C 192.674,178.514 193.34,179.847 193.5,181.5C 193.5,189.5 193.5,197.5 193.5,205.5C 192.5,205.167 191.833,204.5 191.5,203.5C 191.5,194.833 191.5,186.167 191.5,177.5 Z"/></g>
<g><path style="opacity:0.921" fill="#acfffd" d="M 193.5,181.5 C 194.674,182.514 195.34,183.847 195.5,185.5C 195.5,193.167 195.5,200.833 195.5,208.5C 194.094,208.027 193.427,207.027 193.5,205.5C 193.5,197.5 193.5,189.5 193.5,181.5 Z"/></g>
<g><path style="opacity:0.971" fill="#8dfffc" d="M 250.5,183.5 C 250.5,192.167 250.5,200.833 250.5,209.5C 249.833,209.5 249.167,209.5 248.5,209.5C 248.5,201.167 248.5,192.833 248.5,184.5C 248.842,183.662 249.508,183.328 250.5,183.5 Z"/></g>
<g><path style="opacity:0.966" fill="#79fefd" d="M 250.5,183.5 C 251.167,183.5 251.833,183.5 252.5,183.5C 252.5,192.167 252.5,200.833 252.5,209.5C 251.833,209.5 251.167,209.5 250.5,209.5C 250.5,200.833 250.5,192.167 250.5,183.5 Z"/></g>
<g><path style="opacity:0.955" fill="#a8fffd" d="M 248.5,184.5 C 248.5,192.833 248.5,201.167 248.5,209.5C 247.391,209.443 246.391,209.11 245.5,208.5C 245.5,200.833 245.5,193.167 245.5,185.5C 246.209,184.596 247.209,184.263 248.5,184.5 Z"/></g>
<g><path style="opacity:0.983" fill="#65fefc" d="M 252.5,183.5 C 253.167,183.833 253.833,184.167 254.5,184.5C 254.5,192.833 254.5,201.167 254.5,209.5C 253.833,209.5 253.167,209.5 252.5,209.5C 252.5,200.833 252.5,192.167 252.5,183.5 Z"/></g>
<g><path style="opacity:0.971" fill="#51fefb" d="M 254.5,184.5 C 255.492,184.328 256.158,184.662 256.5,185.5C 256.5,193.167 256.5,200.833 256.5,208.5C 255.833,208.833 255.167,209.167 254.5,209.5C 254.5,201.167 254.5,192.833 254.5,184.5 Z"/></g>
<g><path style="opacity:0.926" fill="#a6fffd" d="M 195.5,185.5 C 196.674,186.514 197.34,187.847 197.5,189.5C 197.5,196.833 197.5,204.167 197.5,211.5C 196.599,210.71 195.932,209.71 195.5,208.5C 195.5,200.833 195.5,193.167 195.5,185.5 Z"/></g>
<g><path style="opacity:0.959" fill="#bffffd" d="M 245.5,185.5 C 245.5,193.167 245.5,200.833 245.5,208.5C 244.833,208.167 244.167,207.833 243.5,207.5C 243.5,200.5 243.5,193.5 243.5,186.5C 243.842,185.662 244.508,185.328 245.5,185.5 Z"/></g>
<g><path style="opacity:0.938" fill="#37fefb" d="M 256.5,185.5 C 258.027,185.427 259.027,186.094 259.5,187.5C 259.5,193.833 259.5,200.167 259.5,206.5C 258.71,207.401 257.71,208.068 256.5,208.5C 256.5,200.833 256.5,193.167 256.5,185.5 Z"/></g>
<g><path style="opacity:0.921" fill="#d7fffd" d="M 243.5,186.5 C 243.5,193.5 243.5,200.5 243.5,207.5C 242.5,207.167 241.833,206.5 241.5,205.5C 241.5,199.833 241.5,194.167 241.5,188.5C 241.833,187.5 242.5,186.833 243.5,186.5 Z"/></g>
<g><path style="opacity:0.923" fill="#9ffffd" d="M 197.5,189.5 C 199.008,191.181 200.008,193.181 200.5,195.5C 200.5,201.833 200.5,208.167 200.5,214.5C 199.167,213.833 198.167,212.833 197.5,211.5C 197.5,204.167 197.5,196.833 197.5,189.5 Z"/></g>
<g><path style="opacity:0.867" fill="#eefffe" d="M 241.5,188.5 C 241.5,194.167 241.5,199.833 241.5,205.5C 239.046,203.316 238.046,200.483 238.5,197C 238.667,195.167 238.833,193.333 239,191.5C 239.377,190.058 240.21,189.058 241.5,188.5 Z"/></g>
<g><path style="opacity:0.838" fill="#17fefb" d="M 259.5,187.5 C 263.962,191.683 265.128,196.683 263,202.5C 262.34,204.324 261.173,205.657 259.5,206.5C 259.5,200.167 259.5,193.833 259.5,187.5 Z"/></g>
<g><path style="opacity:0.903" fill="#98fffc" d="M 200.5,195.5 C 201.674,196.514 202.34,197.847 202.5,199.5C 202.5,205.5 202.5,211.5 202.5,217.5C 201.094,217.027 200.427,216.027 200.5,214.5C 200.5,208.167 200.5,201.833 200.5,195.5 Z"/></g>
<g><path style="opacity:0.742" fill="#1afefa" d="M 178.5,200.5 C 176.833,201.167 175.167,201.833 173.5,202.5C 173.857,200.411 174.523,198.411 175.5,196.5C 177.288,197.283 178.288,198.616 178.5,200.5 Z"/></g>
<g><path style="opacity:0.924" fill="#93fffc" d="M 202.5,199.5 C 203.674,200.514 204.34,201.847 204.5,203.5C 204.5,208.833 204.5,214.167 204.5,219.5C 203.5,219.167 202.833,218.5 202.5,217.5C 202.5,211.5 202.5,205.5 202.5,199.5 Z"/></g>
<g><path style="opacity:0.878" fill="#2bfefb" d="M 178.5,200.5 C 180.167,201.5 181.5,202.833 182.5,204.5C 179.177,205.492 175.844,206.492 172.5,207.5C 172.629,205.784 172.962,204.117 173.5,202.5C 175.167,201.833 176.833,201.167 178.5,200.5 Z"/></g>
<g><path style="opacity:0.884" fill="#8dfffc" d="M 204.5,203.5 C 205.674,204.514 206.34,205.847 206.5,207.5C 206.5,212.5 206.5,217.5 206.5,222.5C 205.094,222.027 204.427,221.027 204.5,219.5C 204.5,214.167 204.5,208.833 204.5,203.5 Z"/></g>
<g><path style="opacity:0.927" fill="#39fefb" d="M 182.5,204.5 C 183.5,204.833 184.167,205.5 184.5,206.5C 180.282,208.441 175.949,210.108 171.5,211.5C 171.232,209.901 171.566,208.568 172.5,207.5C 175.844,206.492 179.177,205.492 182.5,204.5 Z"/></g>
<g><path style="opacity:0.906" fill="#87fffc" d="M 206.5,207.5 C 207.674,208.514 208.34,209.847 208.5,211.5C 208.5,215.833 208.5,220.167 208.5,224.5C 207.5,224.167 206.833,223.5 206.5,222.5C 206.5,217.5 206.5,212.5 206.5,207.5 Z"/></g>
<g><path style="opacity:0.957" fill="#45fefb" d="M 184.5,206.5 C 185.401,207.29 186.068,208.29 186.5,209.5C 181.084,211.305 175.751,213.305 170.5,215.5C 170.232,213.901 170.566,212.568 171.5,211.5C 175.949,210.108 180.282,208.441 184.5,206.5 Z"/></g>
<g><path style="opacity:0.962" fill="#4efefb" d="M 186.5,209.5 C 187.167,209.5 187.5,209.833 187.5,210.5C 181.662,213.224 175.662,215.557 169.5,217.5C 169.833,216.833 170.167,216.167 170.5,215.5C 175.751,213.305 181.084,211.305 186.5,209.5 Z"/></g>
<g><path style="opacity:0.92" fill="#54fefb" d="M 187.5,210.5 C 188.833,211.167 188.833,211.833 187.5,212.5C 181.495,214.835 175.495,217.168 169.5,219.5C 169.5,218.833 169.5,218.167 169.5,217.5C 175.662,215.557 181.662,213.224 187.5,210.5 Z"/></g>
<g><path style="opacity:0.873" fill="#80fefd" d="M 208.5,211.5 C 210.008,213.181 211.008,215.181 211.5,217.5C 211.5,221.167 211.5,224.833 211.5,228.5C 209.738,227.738 208.738,226.404 208.5,224.5C 208.5,220.167 208.5,215.833 208.5,211.5 Z"/></g>
<g><path style="opacity:0.976" fill="#5afefb" d="M 187.5,212.5 C 187.5,213.167 187.5,213.833 187.5,214.5C 181.562,216.702 175.562,218.702 169.5,220.5C 169.5,220.167 169.5,219.833 169.5,219.5C 175.495,217.168 181.495,214.835 187.5,212.5 Z"/></g>
<g><path style="opacity:0.943" fill="#60fefc" d="M 187.5,214.5 C 187.167,215.167 186.833,215.833 186.5,216.5C 180.338,218.443 174.338,220.776 168.5,223.5C 168.263,222.209 168.596,221.209 169.5,220.5C 175.562,218.702 181.562,216.702 187.5,214.5 Z"/></g>
<g><path style="opacity:0.97" fill="#67fefc" d="M 186.5,216.5 C 186.5,217.167 186.5,217.833 186.5,218.5C 180.562,220.702 174.562,222.702 168.5,224.5C 168.5,224.167 168.5,223.833 168.5,223.5C 174.338,220.776 180.338,218.443 186.5,216.5 Z"/></g>
<g><path style="opacity:0.863" fill="#79fefc" d="M 211.5,217.5 C 212.674,218.514 213.34,219.847 213.5,221.5C 213.5,224.833 213.5,228.167 213.5,231.5C 212.599,230.71 211.932,229.71 211.5,228.5C 211.5,224.833 211.5,221.167 211.5,217.5 Z"/></g>
<g><path style="opacity:0.937" fill="#6dfefc" d="M 186.5,218.5 C 186.167,219.167 185.833,219.833 185.5,220.5C 179.338,222.443 173.338,224.776 167.5,227.5C 167.263,226.209 167.596,225.209 168.5,224.5C 174.562,222.702 180.562,220.702 186.5,218.5 Z"/></g>
<g><path style="opacity:0.98" fill="#73fefc" d="M 185.5,220.5 C 185.5,220.833 185.5,221.167 185.5,221.5C 179.662,224.224 173.662,226.557 167.5,228.5C 167.5,228.167 167.5,227.833 167.5,227.5C 173.338,224.776 179.338,222.443 185.5,220.5 Z"/></g>
<g><path style="opacity:0.925" fill="#79fefc" d="M 185.5,221.5 C 185.443,222.609 185.11,223.609 184.5,224.5C 178.438,226.298 172.438,228.298 166.5,230.5C 166.833,229.833 167.167,229.167 167.5,228.5C 173.662,226.557 179.662,224.224 185.5,221.5 Z"/></g>
<g><path style="opacity:0.846" fill="#73fefc" d="M 213.5,221.5 C 214.674,222.514 215.34,223.847 215.5,225.5C 215.5,228.167 215.5,230.833 215.5,233.5C 214.5,233.167 213.833,232.5 213.5,231.5C 213.5,228.167 213.5,224.833 213.5,221.5 Z"/></g>
<g><path style="opacity:0.96" fill="#7ffefd" d="M 184.5,224.5 C 184.5,224.833 184.5,225.167 184.5,225.5C 178.662,228.224 172.662,230.557 166.5,232.5C 166.5,231.833 166.5,231.167 166.5,230.5C 172.438,228.298 178.438,226.298 184.5,224.5 Z"/></g>
<g><path style="opacity:0.945" fill="#86fffc" d="M 184.5,225.5 C 184.737,226.791 184.404,227.791 183.5,228.5C 177.689,230.104 172.022,232.104 166.5,234.5C 166.5,233.833 166.5,233.167 166.5,232.5C 172.662,230.557 178.662,228.224 184.5,225.5 Z"/></g>
<g><path style="opacity:0.844" fill="#6efefc" d="M 215.5,225.5 C 216.674,226.514 217.34,227.847 217.5,229.5C 217.5,231.5 217.5,233.5 217.5,235.5C 216.5,235.167 215.833,234.5 215.5,233.5C 215.5,230.833 215.5,228.167 215.5,225.5 Z"/></g>
<g><path style="opacity:0.922" fill="#fefffe" d="M 168.5,264.5 C 173.68,262.736 178.68,260.736 183.5,258.5C 191.099,268.604 201.099,271.771 213.5,268C 215.788,267.178 218.122,266.511 220.5,266C 246.121,252.029 272.121,239.029 298.5,227C 276.692,245.812 254.026,263.479 230.5,280C 209.642,291.632 190.476,289.466 173,273.5C 170.962,270.757 169.462,267.757 168.5,264.5 Z"/></g>
<g><path style="opacity:0.943" fill="#8cfffc" d="M 183.5,228.5 C 183.5,228.833 183.5,229.167 183.5,229.5C 177.505,231.832 171.505,234.165 165.5,236.5C 165.328,235.508 165.662,234.842 166.5,234.5C 172.022,232.104 177.689,230.104 183.5,228.5 Z"/></g>
<g><path style="opacity:0.929" fill="#92fffc" d="M 183.5,229.5 C 183.5,230.167 183.5,230.833 183.5,231.5C 177.338,233.443 171.338,235.776 165.5,238.5C 165.5,237.833 165.5,237.167 165.5,236.5C 171.505,234.165 177.505,231.832 183.5,229.5 Z"/></g>
<g><path style="opacity:0.687" fill="#67fefc" d="M 217.5,229.5 C 219.539,230.911 220.539,232.911 220.5,235.5C 220.5,236.833 220.5,238.167 220.5,239.5C 218.738,238.738 217.738,237.404 217.5,235.5C 217.5,233.5 217.5,231.5 217.5,229.5 Z"/></g>
<g><path style="opacity:0.961" fill="#99fffc" d="M 183.5,231.5 C 183.167,232.167 182.833,232.833 182.5,233.5C 176.753,235.638 171.086,237.971 165.5,240.5C 165.5,239.833 165.5,239.167 165.5,238.5C 171.338,235.776 177.338,233.443 183.5,231.5 Z"/></g>
<g><path style="opacity:0.972" fill="#9ffffd" d="M 182.5,233.5 C 182.5,234.167 182.5,234.833 182.5,235.5C 176.833,237.5 171.167,239.5 165.5,241.5C 165.5,241.167 165.5,240.833 165.5,240.5C 171.086,237.971 176.753,235.638 182.5,233.5 Z"/></g>
<g><path style="opacity:0.939" fill="#f6fffe" d="M 320.5,235.5 C 320.5,235.167 320.5,234.833 320.5,234.5C 327.167,236.833 333.833,239.167 340.5,241.5C 340.5,242.167 340.5,242.833 340.5,243.5C 333.829,240.831 327.162,238.164 320.5,235.5 Z"/></g>
<g><path style="opacity:0.945" fill="#a5fffd" d="M 182.5,235.5 C 182.672,236.492 182.338,237.158 181.5,237.5C 175.833,239.5 170.167,241.5 164.5,243.5C 164.328,242.508 164.662,241.842 165.5,241.5C 171.167,239.5 176.833,237.5 182.5,235.5 Z"/></g>
<g><path style="opacity:0.912" fill="#f0fffe" d="M 320.5,235.5 C 327.162,238.164 333.829,240.831 340.5,243.5C 340.5,244.167 340.5,244.833 340.5,245.5C 334.167,242.833 327.833,240.167 321.5,237.5C 320.662,237.158 320.328,236.492 320.5,235.5 Z"/></g>
<g><path style="opacity:0.939" fill="#abfffd" d="M 181.5,237.5 C 181.5,238.167 181.5,238.833 181.5,239.5C 175.733,241.217 170.066,243.217 164.5,245.5C 164.5,244.833 164.5,244.167 164.5,243.5C 170.167,241.5 175.833,239.5 181.5,237.5 Z"/></g>
<g><path style="opacity:0.963" fill="#eafffe" d="M 321.5,237.5 C 327.833,240.167 334.167,242.833 340.5,245.5C 340.5,245.833 340.5,246.167 340.5,246.5C 334.09,244.363 327.756,242.03 321.5,239.5C 321.5,238.833 321.5,238.167 321.5,237.5 Z"/></g>
<g><path style="opacity:0.938" fill="#b2fffd" d="M 181.5,239.5 C 181.5,239.833 181.5,240.167 181.5,240.5C 175.914,243.029 170.247,245.362 164.5,247.5C 164.5,246.833 164.5,246.167 164.5,245.5C 170.066,243.217 175.733,241.217 181.5,239.5 Z"/></g>
<g><path style="opacity:0.468" fill="#5cfefc" d="M 220.5,235.5 C 222.835,238.5 224.335,241.834 225,245.5C 223.248,243.649 221.748,241.649 220.5,239.5C 220.5,238.167 220.5,236.833 220.5,235.5 Z"/></g>
<g><path style="opacity:0.936" fill="#e4fffe" d="M 321.5,239.5 C 327.756,242.03 334.09,244.363 340.5,246.5C 340.5,247.167 340.5,247.833 340.5,248.5C 334.244,245.97 327.91,243.637 321.5,241.5C 321.5,240.833 321.5,240.167 321.5,239.5 Z"/></g>
<g><path style="opacity:0.937" fill="#b8fffd" d="M 181.5,240.5 C 181.5,241.167 181.5,241.833 181.5,242.5C 175.978,244.896 170.311,246.896 164.5,248.5C 164.5,248.167 164.5,247.833 164.5,247.5C 170.247,245.362 175.914,243.029 181.5,240.5 Z"/></g>
<g><path style="opacity:0.933" fill="#ddfffe" d="M 321.5,241.5 C 327.91,243.637 334.244,245.97 340.5,248.5C 340.5,249.167 340.5,249.833 340.5,250.5C 334.662,247.776 328.662,245.443 322.5,243.5C 322.167,242.833 321.833,242.167 321.5,241.5 Z"/></g>
<g><path style="opacity:0.883" fill="#befffd" d="M 181.5,242.5 C 181.5,243.167 181.5,243.833 181.5,244.5C 175.833,246.5 170.167,248.5 164.5,250.5C 164.5,249.833 164.5,249.167 164.5,248.5C 170.311,246.896 175.978,244.896 181.5,242.5 Z"/></g>
<g><path style="opacity:0.97" fill="#d7fffd" d="M 322.5,244.5 C 322.5,244.167 322.5,243.833 322.5,243.5C 328.662,245.443 334.662,247.776 340.5,250.5C 340.5,250.833 340.5,251.167 340.5,251.5C 334.35,249.561 328.35,247.227 322.5,244.5 Z"/></g>
<g><path style="opacity:0.928" fill="#c4fffd" d="M 181.5,244.5 C 181.167,245.167 180.833,245.833 180.5,246.5C 175.562,248.368 170.562,250.035 165.5,251.5C 164.833,251.5 164.5,251.167 164.5,250.5C 170.167,248.5 175.833,246.5 181.5,244.5 Z"/></g>
<g><path style="opacity:0.922" fill="#d1fffd" d="M 322.5,244.5 C 328.35,247.227 334.35,249.561 340.5,251.5C 340.672,252.492 340.338,253.158 339.5,253.5C 333.952,250.893 328.285,248.56 322.5,246.5C 322.5,245.833 322.5,245.167 322.5,244.5 Z"/></g>
<g><path style="opacity:0.992" fill="#cafffd" d="M 180.5,246.5 C 180.5,247.167 180.5,247.833 180.5,248.5C 175.562,250.368 170.562,252.035 165.5,253.5C 165.5,252.833 165.5,252.167 165.5,251.5C 170.562,250.035 175.562,248.368 180.5,246.5 Z"/></g>
<g><path style="opacity:0.978" fill="#cbfffd" d="M 322.5,246.5 C 328.285,248.56 333.952,250.893 339.5,253.5C 339.5,253.833 339.5,254.167 339.5,254.5C 333.737,252.786 328.07,250.786 322.5,248.5C 322.5,247.833 322.5,247.167 322.5,246.5 Z"/></g>
<g><path style="opacity:0.971" fill="#d1fffd" d="M 180.5,248.5 C 180.5,248.833 180.5,249.167 180.5,249.5C 175.617,251.774 170.617,253.774 165.5,255.5C 165.5,254.833 165.5,254.167 165.5,253.5C 170.562,252.035 175.562,250.368 180.5,248.5 Z"/></g>
<g><path style="opacity:0.958" fill="#c4fffd" d="M 322.5,249.5 C 322.5,249.167 322.5,248.833 322.5,248.5C 328.07,250.786 333.737,252.786 339.5,254.5C 339.5,255.167 339.5,255.833 339.5,256.5C 333.715,254.44 328.048,252.107 322.5,249.5 Z"/></g>
<g><path style="opacity:0.886" fill="#d7fffd" d="M 180.5,249.5 C 181.338,249.842 181.672,250.508 181.5,251.5C 176.265,253.129 171.265,255.129 166.5,257.5C 165.662,257.158 165.328,256.492 165.5,255.5C 170.617,253.774 175.617,251.774 180.5,249.5 Z"/></g>
<g><path style="opacity:0.958" fill="#befffd" d="M 322.5,249.5 C 328.048,252.107 333.715,254.44 339.5,256.5C 339.5,257.167 339.167,257.5 338.5,257.5C 333.089,255.697 327.756,253.697 322.5,251.5C 322.5,250.833 322.5,250.167 322.5,249.5 Z"/></g>
<g><path style="opacity:0.969" fill="#ddfffe" d="M 181.5,251.5 C 181.5,251.833 181.5,252.167 181.5,252.5C 176.617,254.774 171.617,256.774 166.5,258.5C 166.5,258.167 166.5,257.833 166.5,257.5C 171.265,255.129 176.265,253.129 181.5,251.5 Z"/></g>
<g><path style="opacity:0.984" fill="#b8fffd" d="M 322.5,251.5 C 327.756,253.697 333.089,255.697 338.5,257.5C 338.5,258.167 338.5,258.833 338.5,259.5C 332.929,257.538 327.596,255.205 322.5,252.5C 322.5,252.167 322.5,251.833 322.5,251.5 Z"/></g>
<g><path style="opacity:0.946" fill="#e4fffe" d="M 181.5,252.5 C 181.5,253.167 181.5,253.833 181.5,254.5C 176.5,256.5 171.5,258.5 166.5,260.5C 166.5,259.833 166.5,259.167 166.5,258.5C 171.617,256.774 176.617,254.774 181.5,252.5 Z"/></g>
<g><path style="opacity:0.93" fill="#b2fffd" d="M 322.5,252.5 C 327.596,255.205 332.929,257.538 338.5,259.5C 338.5,260.167 338.167,260.5 337.5,260.5C 332.084,258.695 326.751,256.695 321.5,254.5C 321.328,253.508 321.662,252.842 322.5,252.5 Z"/></g>
<g><path style="opacity:0.914" fill="#eafffe" d="M 181.5,254.5 C 182.338,254.842 182.672,255.508 182.5,256.5C 177.438,257.965 172.438,259.632 167.5,261.5C 166.833,261.5 166.5,261.167 166.5,260.5C 171.5,258.5 176.5,256.5 181.5,254.5 Z"/></g>
<g><path style="opacity:0.964" fill="#abfffd" d="M 321.5,254.5 C 326.751,256.695 332.084,258.695 337.5,260.5C 337.5,261.167 337.5,261.833 337.5,262.5C 332.244,260.303 326.911,258.303 321.5,256.5C 321.5,255.833 321.5,255.167 321.5,254.5 Z"/></g>
<g><path style="opacity:0.968" fill="#f0fffe" d="M 182.5,256.5 C 182.5,256.833 182.5,257.167 182.5,257.5C 177.5,259.5 172.5,261.5 167.5,263.5C 167.5,262.833 167.5,262.167 167.5,261.5C 172.438,259.632 177.438,257.965 182.5,256.5 Z"/></g>
<g><path style="opacity:0.937" fill="#a5fffd" d="M 320.5,257.5 C 320.5,256.833 320.833,256.5 321.5,256.5C 326.911,258.303 332.244,260.303 337.5,262.5C 337.5,263.167 337.167,263.5 336.5,263.5C 331.167,261.5 325.833,259.5 320.5,257.5 Z"/></g>
<g><path style="opacity:0.938" fill="#f6fffe" d="M 182.5,257.5 C 183.167,257.5 183.5,257.833 183.5,258.5C 178.68,260.736 173.68,262.736 168.5,264.5C 167.833,264.5 167.5,264.167 167.5,263.5C 172.5,261.5 177.5,259.5 182.5,257.5 Z"/></g>
<g><path style="opacity:0.949" fill="#9ffffd" d="M 320.5,257.5 C 325.833,259.5 331.167,261.5 336.5,263.5C 336.672,264.492 336.338,265.158 335.5,265.5C 330.585,262.973 325.585,260.64 320.5,258.5C 320.5,258.167 320.5,257.833 320.5,257.5 Z"/></g>
<g><path style="opacity:0.96" fill="#99fffc" d="M 320.5,258.5 C 325.585,260.64 330.585,262.973 335.5,265.5C 335.5,265.833 335.5,266.167 335.5,266.5C 330.167,264.5 324.833,262.5 319.5,260.5C 319.328,259.508 319.662,258.842 320.5,258.5 Z"/></g>
<g><path style="opacity:0.949" fill="#92fffc" d="M 318.5,261.5 C 318.5,260.833 318.833,260.5 319.5,260.5C 324.833,262.5 330.167,264.5 335.5,266.5C 335.5,267.167 335.167,267.5 334.5,267.5C 329.096,265.699 323.763,263.699 318.5,261.5 Z"/></g>
<g><path style="opacity:0.931" fill="#8cfffc" d="M 317.5,262.5 C 317.5,261.833 317.833,261.5 318.5,261.5C 323.763,263.699 329.096,265.699 334.5,267.5C 334.672,268.492 334.338,269.158 333.5,269.5C 328.167,267.167 322.833,264.833 317.5,262.5 Z"/></g>
<g><path style="opacity:0.953" fill="#35fefb" d="M 273.5,265.5 C 287.049,271.775 300.716,277.775 314.5,283.5C 313.791,284.404 312.791,284.737 311.5,284.5C 295.5,277.5 279.5,270.5 263.5,263.5C 263.56,262.957 263.893,262.624 264.5,262.5C 267.662,263.365 270.662,264.365 273.5,265.5 Z"/></g>
<g><path style="opacity:0.955" fill="#86fffc" d="M 317.5,262.5 C 322.833,264.833 328.167,267.167 333.5,269.5C 333.5,270.167 333.167,270.5 332.5,270.5C 327.095,268.15 321.761,265.816 316.5,263.5C 316.5,262.833 316.833,262.5 317.5,262.5 Z"/></g>
<g><path style="opacity:0.926" fill="#7ffefd" d="M 316.5,263.5 C 321.761,265.816 327.095,268.15 332.5,270.5C 332.672,271.492 332.338,272.158 331.5,272.5C 326.14,269.597 320.473,267.264 314.5,265.5C 314.833,264.5 315.5,263.833 316.5,263.5 Z"/></g>
<g><path style="opacity:0.964" fill="#2afefb" d="M 263.5,263.5 C 279.5,270.5 295.5,277.5 311.5,284.5C 309.958,285.301 308.292,285.634 306.5,285.5C 291.167,278.833 275.833,272.167 260.5,265.5C 261.5,264.833 262.5,264.167 263.5,263.5 Z"/></g>
<g><path style="opacity:0.983" fill="#22fefb" d="M 260.5,265.5 C 275.833,272.167 291.167,278.833 306.5,285.5C 305.833,285.5 305.167,285.5 304.5,285.5C 289.317,279.403 274.317,273.07 259.5,266.5C 259.5,265.833 259.833,265.5 260.5,265.5 Z"/></g>
<g><path style="opacity:0.952" fill="#3bfefb" d="M 273.5,265.5 C 276.428,265.565 279.095,266.232 281.5,267.5C 293.261,272.871 305.261,277.871 317.5,282.5C 316.791,283.404 315.791,283.737 314.5,283.5C 300.716,277.775 287.049,271.775 273.5,265.5 Z"/></g>
<g><path style="opacity:0.951" fill="#79fefc" d="M 313.5,266.5 C 313.5,265.833 313.833,265.5 314.5,265.5C 320.473,267.264 326.14,269.597 331.5,272.5C 331.5,273.167 331.167,273.5 330.5,273.5C 325.015,270.931 319.349,268.597 313.5,266.5 Z"/></g>
<g><path style="opacity:0.936" fill="#73fefc" d="M 311.5,267.5 C 311.842,266.662 312.508,266.328 313.5,266.5C 319.349,268.597 325.015,270.931 330.5,273.5C 330.5,274.167 330.167,274.5 329.5,274.5C 323.716,271.608 317.716,269.275 311.5,267.5 Z"/></g>
<g><path style="opacity:0.951" fill="#41fefb" d="M 281.5,267.5 C 283.903,267.448 286.236,267.781 288.5,268.5C 298.42,273.621 308.754,277.955 319.5,281.5C 319.158,282.338 318.492,282.672 317.5,282.5C 305.261,277.871 293.261,272.871 281.5,267.5 Z"/></g>
<g><path style="opacity:0.937" fill="#66fefc" d="M 310.5,267.5 C 316.2,270.68 322.2,273.347 328.5,275.5C 328.5,276.167 328.167,276.5 327.5,276.5C 320.764,274.594 314.431,271.927 308.5,268.5C 309.167,268.167 309.833,267.833 310.5,267.5 Z"/></g>
<g><path style="opacity:0.959" fill="#6dfefc" d="M 310.5,267.5 C 310.833,267.5 311.167,267.5 311.5,267.5C 317.716,269.275 323.716,271.608 329.5,274.5C 329.5,275.167 329.167,275.5 328.5,275.5C 322.2,273.347 316.2,270.68 310.5,267.5 Z"/></g>
<g><path style="opacity:0.945" fill="#18fefa" d="M 259.5,266.5 C 274.317,273.07 289.317,279.403 304.5,285.5C 301.319,286.59 297.985,286.59 294.5,285.5C 282.132,279.655 269.465,274.321 256.5,269.5C 257.167,268.167 258.167,267.167 259.5,266.5 Z"/></g>
<g><path style="opacity:0.957" fill="#47fefb" d="M 288.5,268.5 C 290.565,268.517 292.565,268.85 294.5,269.5C 303.167,273.5 311.833,277.5 320.5,281.5C 320.167,281.5 319.833,281.5 319.5,281.5C 308.754,277.955 298.42,273.621 288.5,268.5 Z"/></g>
<g><path style="opacity:0.939" fill="#60fefc" d="M 308.5,268.5 C 314.431,271.927 320.764,274.594 327.5,276.5C 327.5,277.167 327.167,277.5 326.5,277.5C 319.53,275.403 312.864,272.737 306.5,269.5C 307.167,269.167 307.833,268.833 308.5,268.5 Z"/></g>
<g><path style="opacity:0.915" fill="#4efefb" d="M 294.5,269.5 C 296.95,269.298 299.283,269.631 301.5,270.5C 308.447,274.265 315.781,277.265 323.5,279.5C 322.71,280.401 321.71,281.068 320.5,281.5C 311.833,277.5 303.167,273.5 294.5,269.5 Z"/></g>
<g><path style="opacity:0.961" fill="#54fefb" d="M 302.5,269.5 C 309.538,273.012 316.871,276.012 324.5,278.5C 324.5,279.167 324.167,279.5 323.5,279.5C 315.781,277.265 308.447,274.265 301.5,270.5C 301.5,269.833 301.833,269.5 302.5,269.5 Z"/></g>
<g><path style="opacity:0.892" fill="#5afefb" d="M 302.5,269.5 C 303.833,269.5 305.167,269.5 306.5,269.5C 312.864,272.737 319.53,275.403 326.5,277.5C 326.158,278.338 325.492,278.672 324.5,278.5C 316.871,276.012 309.538,273.012 302.5,269.5 Z"/></g>
<g><path style="opacity:0.825" fill="#05fefa" d="M 256.5,269.5 C 269.465,274.321 282.132,279.655 294.5,285.5C 279.953,283.614 265.62,280.614 251.5,276.5C 250.068,276.267 249.568,275.6 250,274.5C 252.287,272.946 254.454,271.279 256.5,269.5 Z"/></g>
<g><path style="opacity:0.876" fill="#00fefa" d="M 104.5,301.5 C 111.403,301.142 117.736,302.809 123.5,306.5C 122.162,309.176 120.829,311.842 119.5,314.5C 115.699,312.566 111.699,311.233 107.5,310.5C 103.338,310.649 102.672,312.149 105.5,315C 109.833,316.667 114.167,318.333 118.5,320C 123.596,324.248 124.763,329.415 122,335.5C 112.664,342.963 102.83,343.463 92.5,337C 91.4258,336.261 90.7591,335.261 90.5,334C 91.53,331.44 92.6966,328.94 94,326.5C 98.7328,330.744 104.233,332.578 110.5,332C 111.357,331.311 112.023,330.478 112.5,329.5C 111.221,327.854 109.555,326.687 107.5,326C 101.303,325.324 96.4695,322.491 93,317.5C 91.5987,308.402 95.432,303.068 104.5,301.5 Z"/></g>
<g><path style="opacity:0.884" fill="#00fefa" d="M 143.5,301.5 C 163.219,302.625 170.386,312.625 165,331.5C 157.213,341.533 147.38,344.033 135.5,339C 124.469,330.556 122.635,320.389 130,308.5C 133.975,304.931 138.475,302.597 143.5,301.5 Z M 145.5,310.5 C 154.898,312.627 158.065,318.293 155,327.5C 149.333,334.167 143.667,334.167 138,327.5C 134.822,319.173 137.322,313.506 145.5,310.5 Z"/></g>
<g><path style="opacity:0.908" fill="#00fefa" d="M 171.5,302.5 C 195.842,302.167 220.176,302.5 244.5,303.5C 246.821,311.116 248.988,318.783 251,326.5C 254.094,318.794 256.261,310.794 257.5,302.5C 261.226,302.177 264.893,302.511 268.5,303.5C 270.821,311.116 272.988,318.783 275,326.5C 277.787,319.029 280.121,311.362 282,303.5C 285.394,302.544 288.894,302.211 292.5,302.5C 289.205,315.218 285.205,327.718 280.5,340C 276.789,340.825 273.122,340.659 269.5,339.5C 267.234,331.868 265.067,324.201 263,316.5C 260.988,324.217 258.821,331.884 256.5,339.5C 252.878,340.659 249.211,340.825 245.5,340C 241.676,328.527 237.842,317.027 234,305.5C 233.506,307.134 233.34,308.801 233.5,310.5C 229.833,310.5 226.167,310.5 222.5,310.5C 222.5,320.5 222.5,330.5 222.5,340.5C 218.833,340.5 215.167,340.5 211.5,340.5C 211.5,330.5 211.5,320.5 211.5,310.5C 201.5,310.5 191.5,310.5 181.5,310.5C 181.5,313.167 181.5,315.833 181.5,318.5C 187.167,318.5 192.833,318.5 198.5,318.5C 198.5,321.5 198.5,324.5 198.5,327.5C 192.833,327.5 187.167,327.5 181.5,327.5C 181.5,331.833 181.5,336.167 181.5,340.5C 178.167,340.5 174.833,340.5 171.5,340.5C 171.5,327.833 171.5,315.167 171.5,302.5 Z"/></g>
<g><path style="opacity:0.89" fill="#00fefa" d="M 307.5,302.5 C 311.437,302.207 315.27,302.54 319,303.5C 324.038,315.74 329.204,327.906 334.5,340C 330.459,340.827 326.459,340.66 322.5,339.5C 321.926,337.941 321.26,336.441 320.5,335C 315.136,334.171 309.802,334.337 304.5,335.5C 303.833,336.833 303.167,338.167 302.5,339.5C 298.833,340.833 295.167,340.833 291.5,339.5C 296.84,327.137 302.174,314.804 307.5,302.5 Z M 312.5,314.5 C 314.601,317.797 315.935,321.463 316.5,325.5C 313.753,325.813 311.086,325.48 308.5,324.5C 309.849,321.141 311.182,317.808 312.5,314.5 Z"/></g>
<g><path style="opacity:0.928" fill="#00fefa" d="M 337.5,302.5 C 345.507,302.334 353.507,302.5 361.5,303C 369.285,306.328 372.118,312.161 370,320.5C 369.4,324.04 367.566,326.707 364.5,328.5C 366.584,332.336 368.917,336.003 371.5,339.5C 367.541,340.66 363.541,340.827 359.5,340C 357.833,337 356.167,334 354.5,331C 352.19,330.503 349.857,330.337 347.5,330.5C 347.5,333.833 347.5,337.167 347.5,340.5C 344.167,340.5 340.833,340.5 337.5,340.5C 337.5,327.833 337.5,315.167 337.5,302.5 Z M 347.5,310.5 C 350.518,310.335 353.518,310.502 356.5,311C 361.408,313.873 361.741,317.206 357.5,321C 354.183,321.498 350.85,321.665 347.5,321.5C 347.5,317.833 347.5,314.167 347.5,310.5 Z"/></g>
<g><path style="opacity:0.952" fill="#00fefa" d="M 376.5,302.5 C 386.5,302.5 396.5,302.5 406.5,302.5C 406.5,305.167 406.5,307.833 406.5,310.5C 399.833,310.5 393.167,310.5 386.5,310.5C 386.5,312.833 386.5,315.167 386.5,317.5C 392.5,317.5 398.5,317.5 404.5,317.5C 404.5,320.167 404.5,322.833 404.5,325.5C 398.5,325.5 392.5,325.5 386.5,325.5C 386.5,327.833 386.5,330.167 386.5,332.5C 393.5,332.5 400.5,332.5 407.5,332.5C 407.5,335.167 407.5,337.833 407.5,340.5C 397.167,340.5 386.833,340.5 376.5,340.5C 376.5,327.833 376.5,315.167 376.5,302.5 Z"/></g>
<g><path style="opacity:0.745" fill="#fefffe" d="M 95.5,360.5 C 97.1667,360.5 98.8333,360.5 100.5,360.5C 102.026,365.91 103.859,371.244 106,376.5C 108.196,371.58 110.196,366.58 112,361.5C 113.356,360.62 114.856,360.286 116.5,360.5C 114.588,367.668 112.088,374.668 109,381.5C 105.583,383.133 103.25,382.133 102,378.5C 99.5343,372.576 97.3676,366.576 95.5,360.5 Z"/></g>
<g><path style="opacity:0.753" fill="#fefffe" d="M 130.5,360.5 C 135.833,360.5 141.167,360.5 146.5,360.5C 146.5,362.167 146.5,363.833 146.5,365.5C 142.833,365.5 139.167,365.5 135.5,365.5C 135.5,366.833 135.5,368.167 135.5,369.5C 138.833,369.5 142.167,369.5 145.5,369.5C 145.5,370.833 145.5,372.167 145.5,373.5C 142.167,373.5 138.833,373.5 135.5,373.5C 135.5,375.167 135.5,376.833 135.5,378.5C 139.167,378.5 142.833,378.5 146.5,378.5C 146.5,379.833 146.5,381.167 146.5,382.5C 141.167,382.5 135.833,382.5 130.5,382.5C 130.5,375.167 130.5,367.833 130.5,360.5 Z"/></g>
<g><path style="opacity:0.753" fill="#fefffe" d="M 161.5,360.5 C 166.58,360.25 171.58,360.75 176.5,362C 180.398,366.728 180.398,371.562 176.5,376.5C 177.711,378.422 179.044,380.255 180.5,382C 175.952,383.149 172.952,381.482 171.5,377C 169.866,376.506 168.199,376.34 166.5,376.5C 166.5,378.5 166.5,380.5 166.5,382.5C 164.833,382.5 163.167,382.5 161.5,382.5C 161.5,375.167 161.5,367.833 161.5,360.5 Z M 166.5,365.5 C 169.247,365.187 171.914,365.52 174.5,366.5C 175.953,368.644 175.62,370.477 173.5,372C 171.19,372.497 168.857,372.663 166.5,372.5C 166.5,370.167 166.5,367.833 166.5,365.5 Z"/></g>
<g><path style="opacity:0.75" fill="#fefffe" d="M 199.5,360.5 C 203.788,359.986 207.455,361.153 210.5,364C 210.333,365.5 209.5,366.333 208,366.5C 205.001,365.015 202.168,365.181 199.5,367C 202.661,369.112 205.994,370.946 209.5,372.5C 211.989,379.184 209.655,382.851 202.5,383.5C 198.755,383.329 195.755,381.829 193.5,379C 193.78,377.605 194.447,376.438 195.5,375.5C 198.361,377.98 201.694,378.98 205.5,378.5C 205.67,377.178 205.337,376.011 204.5,375C 201.911,373.803 199.244,372.803 196.5,372C 193.262,367.017 194.262,363.183 199.5,360.5 Z"/></g>
<g><path style="opacity:0.706" fill="#fefffe" d="M 225.5,360.5 C 227.167,360.5 228.833,360.5 230.5,360.5C 230.5,367.833 230.5,375.167 230.5,382.5C 228.833,382.5 227.167,382.5 225.5,382.5C 225.5,375.167 225.5,367.833 225.5,360.5 Z"/></g>
<g><path style="opacity:0.757" fill="#fefffe" d="M 253.5,360.5 C 264.987,360.806 269.487,366.473 267,377.5C 259.944,385.478 252.944,385.478 246,377.5C 243.2,369.379 245.7,363.712 253.5,360.5 Z M 253.5,365.5 C 262.523,365.062 265.189,368.895 261.5,377C 253.59,380.31 249.756,377.81 250,369.5C 250.69,367.65 251.856,366.316 253.5,365.5 Z"/></g>
<g><path style="opacity:0.735" fill="#fefffe" d="M 282.5,360.5 C 284.199,360.34 285.866,360.506 287.5,361C 290.667,365.5 293.833,370 297,374.5C 297.499,369.845 297.666,365.179 297.5,360.5C 299.167,360.5 300.833,360.5 302.5,360.5C 302.5,367.833 302.5,375.167 302.5,382.5C 300.396,382.799 298.396,382.466 296.5,381.5C 293.858,377.691 291.025,374.024 288,370.5C 287.501,374.486 287.334,378.486 287.5,382.5C 285.833,382.5 284.167,382.5 282.5,382.5C 282.5,375.167 282.5,367.833 282.5,360.5 Z"/></g>
<g><path style="opacity:0.726" fill="#fefffe" d="M 336.5,360.5 C 341.833,360.5 347.167,360.5 352.5,360.5C 351.032,367.895 348.366,374.895 344.5,381.5C 342.833,382.833 341.167,382.833 339.5,381.5C 342.027,376.585 344.36,371.585 346.5,366.5C 344.604,365.534 342.604,365.201 340.5,365.5C 340.5,366.5 340.5,367.5 340.5,368.5C 339.167,368.5 337.833,368.5 336.5,368.5C 336.5,365.833 336.5,363.167 336.5,360.5 Z"/></g>
<g><path style="opacity:0.745" fill="#fefffe" d="M 390.5,360.5 C 398.535,360.034 402.535,363.867 402.5,372C 401.679,381.578 396.679,384.911 387.5,382C 383.248,376.757 382.415,370.924 385,364.5C 386.5,362.531 388.333,361.198 390.5,360.5 Z M 391.5,364.5 C 395.87,365.041 397.87,367.541 397.5,372C 398.064,375.764 396.564,378.264 393,379.5C 389.349,378.375 387.849,375.875 388.5,372C 388.106,368.832 389.106,366.332 391.5,364.5 Z"/></g>
<g><path style="opacity:0.681" fill="#fefffe" d="M 365.5,378.5 C 366.833,378.5 368.167,378.5 369.5,378.5C 369.884,380.665 369.217,382.332 367.5,383.5C 365.783,382.332 365.116,380.665 365.5,378.5 Z"/></g>
</svg>
