<?xml version="1.0" encoding="UTF-8"?>
<!DOCTYPE svg PUBLIC "-//W3C//DTD SVG 1.1//EN" "http://www.w3.org/Graphics/SVG/1.1/DTD/svg11.dtd">
<svg xmlns="http://www.w3.org/2000/svg" version="1.1" width="500px" height="500px" style="shape-rendering:geometricPrecision; text-rendering:geometricPrecision; image-rendering:optimizeQuality; fill-rule:evenodd; clip-rule:evenodd" xmlns:xlink="http://www.w3.org/1999/xlink">
<g><path style="opacity:0.956" fill="#0c72de" d="M 300.5,109.5 C 300.5,115.5 300.5,121.5 300.5,127.5C 299.041,127.433 297.708,127.766 296.5,128.5C 296.5,122.5 296.5,116.5 296.5,110.5C 297.833,110.167 299.167,109.833 300.5,109.5 Z"/></g>
<g><path style="opacity:0.942" fill="#0c6ddc" d="M 300.5,109.5 C 302.099,109.232 303.432,109.566 304.5,110.5C 304.5,116.167 304.5,121.833 304.5,127.5C 303.167,127.5 301.833,127.5 300.5,127.5C 300.5,121.5 300.5,115.5 300.5,109.5 Z"/></g>
<g><path style="opacity:0.917" fill="#0b7de0" d="M 292.5,110.5 C 292.5,116.5 292.5,122.5 292.5,128.5C 292.158,129.338 291.492,129.672 290.5,129.5C 290.5,123.5 290.5,117.5 290.5,111.5C 290.842,110.662 291.508,110.328 292.5,110.5 Z"/></g>
<g><path style="opacity:0.958" fill="#0b78df" d="M 292.5,110.5 C 293.833,110.5 295.167,110.5 296.5,110.5C 296.5,116.5 296.5,122.5 296.5,128.5C 295.167,128.5 293.833,128.5 292.5,128.5C 292.5,122.5 292.5,116.5 292.5,110.5 Z"/></g>
<g><path style="opacity:0.972" fill="#0d66db" d="M 304.5,110.5 C 305.833,110.5 307.167,110.5 308.5,110.5C 308.5,116.5 308.5,122.5 308.5,128.5C 307.167,128.167 305.833,127.833 304.5,127.5C 304.5,121.833 304.5,116.167 304.5,110.5 Z"/></g>
<g><path style="opacity:0.955" fill="#0d60da" d="M 308.5,110.5 C 309.833,110.833 311.167,111.167 312.5,111.5C 312.5,117.5 312.5,123.5 312.5,129.5C 311.167,129.167 309.833,128.833 308.5,128.5C 308.5,122.5 308.5,116.5 308.5,110.5 Z"/></g>
<g><path style="opacity:0.925" fill="#06b8ec" d="M 197.5,111.5 C 197.5,116.833 197.5,122.167 197.5,127.5C 196.71,128.401 195.71,129.068 194.5,129.5C 194.5,123.833 194.5,118.167 194.5,112.5C 195.391,111.89 196.391,111.557 197.5,111.5 Z"/></g>
<g><path style="opacity:0.95" fill="#06b3eb" d="M 197.5,111.5 C 198.167,111.5 198.833,111.5 199.5,111.5C 199.5,116.833 199.5,122.167 199.5,127.5C 198.833,127.5 198.167,127.5 197.5,127.5C 197.5,122.167 197.5,116.833 197.5,111.5 Z"/></g>
<g><path style="opacity:0.971" fill="#07ace9" d="M 199.5,111.5 C 200.833,111.5 202.167,111.5 203.5,111.5C 203.5,116.5 203.5,121.5 203.5,126.5C 202.167,126.833 200.833,127.167 199.5,127.5C 199.5,122.167 199.5,116.833 199.5,111.5 Z"/></g>
<g><path style="opacity:0.96" fill="#07a4e8" d="M 203.5,111.5 C 204.5,111.5 205.5,111.5 206.5,111.5C 206.5,116.833 206.5,122.167 206.5,127.5C 205.391,127.443 204.391,127.11 203.5,126.5C 203.5,121.5 203.5,116.5 203.5,111.5 Z"/></g>
<g><path style="opacity:0.942" fill="#089ee7" d="M 206.5,111.5 C 207.167,111.5 207.833,111.5 208.5,111.5C 208.5,116.833 208.5,122.167 208.5,127.5C 207.833,127.5 207.167,127.5 206.5,127.5C 206.5,122.167 206.5,116.833 206.5,111.5 Z"/></g>
<g><path style="opacity:0.942" fill="#0899e6" d="M 208.5,111.5 C 209.5,111.5 210.5,111.5 211.5,111.5C 211.5,116.833 211.5,122.167 211.5,127.5C 210.5,127.5 209.5,127.5 208.5,127.5C 208.5,122.167 208.5,116.833 208.5,111.5 Z"/></g>
<g><path style="opacity:0.914" fill="#0992e4" d="M 211.5,111.5 C 212.791,111.263 213.791,111.596 214.5,112.5C 214.5,117.833 214.5,123.167 214.5,128.5C 213.391,128.443 212.391,128.11 211.5,127.5C 211.5,122.167 211.5,116.833 211.5,111.5 Z"/></g>
<g><path style="opacity:0.94" fill="#0a86e2" d="M 287.5,111.5 C 287.5,117.833 287.5,124.167 287.5,130.5C 286.167,130.833 284.833,131.167 283.5,131.5C 283.5,125.5 283.5,119.5 283.5,113.5C 284.671,112.655 286.005,111.989 287.5,111.5 Z"/></g>
<g><path style="opacity:0.955" fill="#0a81e1" d="M 287.5,111.5 C 288.5,111.5 289.5,111.5 290.5,111.5C 290.5,117.5 290.5,123.5 290.5,129.5C 289.391,129.557 288.391,129.89 287.5,130.5C 287.5,124.167 287.5,117.833 287.5,111.5 Z"/></g>
<g><path style="opacity:0.939" fill="#0e5ad9" d="M 312.5,111.5 C 313.833,111.833 315.167,112.167 316.5,112.5C 316.5,119.167 316.5,125.833 316.5,132.5C 315.128,131.488 313.795,130.488 312.5,129.5C 312.5,123.5 312.5,117.5 312.5,111.5 Z"/></g>
<g><path style="opacity:0.946" fill="#05c4ef" d="M 192.5,112.5 C 192.5,118.5 192.5,124.5 192.5,130.5C 191.5,131.167 190.5,131.833 189.5,132.5C 189.5,126.167 189.5,119.833 189.5,113.5C 190.609,113.443 191.609,113.11 192.5,112.5 Z"/></g>
<g><path style="opacity:0.936" fill="#05bfee" d="M 192.5,112.5 C 193.167,112.5 193.833,112.5 194.5,112.5C 194.5,118.167 194.5,123.833 194.5,129.5C 193.833,129.833 193.167,130.167 192.5,130.5C 192.5,124.5 192.5,118.5 192.5,112.5 Z"/></g>
<g><path style="opacity:0.966" fill="#098ce3" d="M 214.5,112.5 C 215.5,112.5 216.5,112.5 217.5,112.5C 217.5,117.833 217.5,123.167 217.5,128.5C 216.5,128.5 215.5,128.5 214.5,128.5C 214.5,123.167 214.5,117.833 214.5,112.5 Z"/></g>
<g><path style="opacity:0.945" fill="#0a86e2" d="M 217.5,112.5 C 218.167,112.5 218.833,112.5 219.5,112.5C 219.5,118.167 219.5,123.833 219.5,129.5C 218.833,129.167 218.167,128.833 217.5,128.5C 217.5,123.167 217.5,117.833 217.5,112.5 Z"/></g>
<g><path style="opacity:0.935" fill="#0a80e1" d="M 219.5,112.5 C 220.833,112.833 222.167,113.167 223.5,113.5C 223.5,118.833 223.5,124.167 223.5,129.5C 222.167,129.5 220.833,129.5 219.5,129.5C 219.5,123.833 219.5,118.167 219.5,112.5 Z"/></g>
<g><path style="opacity:0.929" fill="#0e54d7" d="M 316.5,112.5 C 317.833,113.167 319.167,113.833 320.5,114.5C 320.5,121.833 320.5,129.167 320.5,136.5C 318.833,135.5 317.5,134.167 316.5,132.5C 316.5,125.833 316.5,119.167 316.5,112.5 Z"/></g>
<g><path style="opacity:0.944" fill="#04cbf0" d="M 189.5,113.5 C 189.5,119.833 189.5,126.167 189.5,132.5C 188.833,133.833 187.833,134.833 186.5,135.5C 186.5,128.5 186.5,121.5 186.5,114.5C 187.609,114.443 188.609,114.11 189.5,113.5 Z"/></g>
<g><path style="opacity:0.918" fill="#0b78df" d="M 223.5,113.5 C 224.492,113.328 225.158,113.662 225.5,114.5C 225.5,119.833 225.5,125.167 225.5,130.5C 224.508,130.672 223.842,130.338 223.5,129.5C 223.5,124.167 223.5,118.833 223.5,113.5 Z"/></g>
<g><path style="opacity:0.941" fill="#098ce3" d="M 283.5,113.5 C 283.5,119.5 283.5,125.5 283.5,131.5C 282.486,132.674 281.153,133.34 279.5,133.5C 279.5,127.5 279.5,121.5 279.5,115.5C 280.514,114.326 281.847,113.66 283.5,113.5 Z"/></g>
<g><path style="opacity:0.921" fill="#04d2f1" d="M 186.5,114.5 C 186.5,121.5 186.5,128.5 186.5,135.5C 186.008,137.819 185.008,139.819 183.5,141.5C 183.5,133.167 183.5,124.833 183.5,116.5C 184.5,115.833 185.5,115.167 186.5,114.5 Z"/></g>
<g><path style="opacity:0.962" fill="#0b73de" d="M 225.5,114.5 C 226.5,114.5 227.5,114.5 228.5,114.5C 228.5,120.167 228.5,125.833 228.5,131.5C 227.609,130.89 226.609,130.557 225.5,130.5C 225.5,125.167 225.5,119.833 225.5,114.5 Z"/></g>
<g><path style="opacity:0.941" fill="#0c6ddc" d="M 228.5,114.5 C 229.609,114.557 230.609,114.89 231.5,115.5C 231.5,120.833 231.5,126.167 231.5,131.5C 230.5,131.5 229.5,131.5 228.5,131.5C 228.5,125.833 228.5,120.167 228.5,114.5 Z"/></g>
<g><path style="opacity:0.92" fill="#0f4dd6" d="M 320.5,114.5 C 322.332,115.248 323.999,116.248 325.5,117.5C 325.5,143.5 325.5,169.5 325.5,195.5C 323.086,194.089 321.419,192.089 320.5,189.5C 320.5,184.5 320.5,179.5 320.5,174.5C 322.025,166.375 323.358,158.209 324.5,150C 324.323,145.121 322.99,140.621 320.5,136.5C 320.5,129.167 320.5,121.833 320.5,114.5 Z"/></g>
<g><path style="opacity:0.942" fill="#0d66db" d="M 231.5,115.5 C 232.791,115.263 233.791,115.596 234.5,116.5C 234.5,121.833 234.5,127.167 234.5,132.5C 233.391,132.443 232.391,132.11 231.5,131.5C 231.5,126.167 231.5,120.833 231.5,115.5 Z"/></g>
<g><path style="opacity:0.957" fill="#0992e4" d="M 279.5,115.5 C 279.5,121.5 279.5,127.5 279.5,133.5C 278.486,134.674 277.153,135.34 275.5,135.5C 275.5,129.5 275.5,123.5 275.5,117.5C 276.514,116.326 277.847,115.66 279.5,115.5 Z"/></g>
<g><path style="opacity:0.933" fill="#03d7f3" d="M 183.5,116.5 C 183.5,124.833 183.5,133.167 183.5,141.5C 182.426,147.149 182.426,152.816 183.5,158.5C 183.5,169.833 183.5,181.167 183.5,192.5C 182.094,192.027 181.427,191.027 181.5,189.5C 181.5,165.5 181.5,141.5 181.5,117.5C 182.167,117.167 182.833,116.833 183.5,116.5 Z"/></g>
<g><path style="opacity:0.929" fill="#0d60da" d="M 234.5,116.5 C 235.167,116.5 235.833,116.5 236.5,116.5C 236.5,122.167 236.5,127.833 236.5,133.5C 235.833,133.167 235.167,132.833 234.5,132.5C 234.5,127.167 234.5,121.833 234.5,116.5 Z"/></g>
<g><path style="opacity:0.935" fill="#0e5bd9" d="M 236.5,116.5 C 237.791,116.263 238.791,116.596 239.5,117.5C 239.5,122.833 239.5,128.167 239.5,133.5C 238.5,133.5 237.5,133.5 236.5,133.5C 236.5,127.833 236.5,122.167 236.5,116.5 Z"/></g>
<g><path style="opacity:0.98" fill="#03dcf4" d="M 181.5,117.5 C 181.5,141.5 181.5,165.5 181.5,189.5C 179.738,188.738 178.738,187.404 178.5,185.5C 178.5,163.5 178.5,141.5 178.5,119.5C 179.5,118.833 180.5,118.167 181.5,117.5 Z"/></g>
<g><path style="opacity:0.919" fill="#0e54d7" d="M 239.5,117.5 C 240.791,117.263 241.791,117.596 242.5,118.5C 242.5,123.5 242.5,128.5 242.5,133.5C 241.5,134.833 240.5,134.833 239.5,133.5C 239.5,128.167 239.5,122.833 239.5,117.5 Z"/></g>
<g><path style="opacity:0.937" fill="#0899e6" d="M 275.5,117.5 C 275.5,123.5 275.5,129.5 275.5,135.5C 274.341,137.25 272.674,138.25 270.5,138.5C 270.5,132.5 270.5,126.5 270.5,120.5C 271.659,118.75 273.326,117.75 275.5,117.5 Z"/></g>
<g><path style="opacity:0.983" fill="#0f47d4" d="M 325.5,117.5 C 327.167,118.5 328.5,119.833 329.5,121.5C 329.5,147.833 329.5,174.167 329.5,200.5C 327.937,199.055 326.604,197.389 325.5,195.5C 325.5,169.5 325.5,143.5 325.5,117.5 Z"/></g>
<g><path style="opacity:0.912" fill="#0f4dd6" d="M 242.5,118.5 C 243.5,118.5 244.5,118.5 245.5,118.5C 245.5,122.5 245.5,126.5 245.5,130.5C 244.833,131.833 243.833,132.833 242.5,133.5C 242.5,128.5 242.5,123.5 242.5,118.5 Z"/></g>
<g><path style="opacity:0.912" fill="#0f47d4" d="M 245.5,118.5 C 246.391,119.11 247.391,119.443 248.5,119.5C 248.5,122.167 248.5,124.833 248.5,127.5C 247.833,128.833 246.833,129.833 245.5,130.5C 245.5,126.5 245.5,122.5 245.5,118.5 Z"/></g>
<g><path style="opacity:0.968" fill="#02e3f5" d="M 178.5,119.5 C 178.5,141.5 178.5,163.5 178.5,185.5C 177.026,184.564 176.026,183.23 175.5,181.5C 175.5,161.833 175.5,142.167 175.5,122.5C 176.167,121.167 177.167,120.167 178.5,119.5 Z"/></g>
<g><path style="opacity:0.839" fill="#1041d4" d="M 248.5,119.5 C 249.492,119.328 250.158,119.662 250.5,120.5C 250.5,122.5 250.5,124.5 250.5,126.5C 250.158,127.338 249.492,127.672 248.5,127.5C 248.5,124.833 248.5,122.167 248.5,119.5 Z"/></g>
<g><path style="opacity:0.771" fill="#103cd2" d="M 250.5,120.5 C 251.5,120.5 252.5,120.5 253.5,120.5C 253.5,121.5 253.5,122.5 253.5,123.5C 252.833,124.833 251.833,125.833 250.5,126.5C 250.5,124.5 250.5,122.5 250.5,120.5 Z"/></g>
<g><path style="opacity:0.526" fill="#1136d1" d="M 253.5,120.5 C 256.167,121.5 256.167,122.5 253.5,123.5C 253.5,122.5 253.5,121.5 253.5,120.5 Z"/></g>
<g><path style="opacity:0.929" fill="#089ee7" d="M 270.5,120.5 C 270.5,126.5 270.5,132.5 270.5,138.5C 270.158,139.338 269.492,139.672 268.5,139.5C 268.5,133.5 268.5,127.5 268.5,121.5C 268.842,120.662 269.508,120.328 270.5,120.5 Z"/></g>
<g><path style="opacity:0.944" fill="#08a1e8" d="M 268.5,121.5 C 268.5,127.5 268.5,133.5 268.5,139.5C 268.158,140.338 267.492,140.672 266.5,140.5C 266.5,134.5 266.5,128.5 266.5,122.5C 267.167,122.167 267.833,121.833 268.5,121.5 Z"/></g>
<g><path style="opacity:0.963" fill="#1041d3" d="M 329.5,121.5 C 331.587,122.585 332.92,124.251 333.5,126.5C 333.5,146.5 333.5,166.5 333.5,186.5C 333.08,191.529 331.746,196.195 329.5,200.5C 329.5,174.167 329.5,147.833 329.5,121.5 Z"/></g>
<g><path style="opacity:0.968" fill="#01eaf6" d="M 175.5,122.5 C 175.5,142.167 175.5,161.833 175.5,181.5C 174.263,180.035 173.263,178.368 172.5,176.5C 172.5,159.833 172.5,143.167 172.5,126.5C 173.512,125.128 174.512,123.795 175.5,122.5 Z"/></g>
<g><path style="opacity:0.922" fill="#07a5e8" d="M 266.5,122.5 C 266.5,128.5 266.5,134.5 266.5,140.5C 265.486,141.674 264.153,142.34 262.5,142.5C 262.5,136.833 262.5,131.167 262.5,125.5C 263.795,124.512 265.128,123.512 266.5,122.5 Z"/></g>
<g><path style="opacity:0.93" fill="#07abea" d="M 262.5,125.5 C 262.5,131.167 262.5,136.833 262.5,142.5C 261.71,143.401 260.71,144.068 259.5,144.5C 259.5,138.833 259.5,133.167 259.5,127.5C 260.5,126.833 261.5,126.167 262.5,125.5 Z"/></g>
<g><path style="opacity:0.949" fill="#01f0f8" d="M 172.5,126.5 C 172.5,143.167 172.5,159.833 172.5,176.5C 170.992,174.819 169.992,172.819 169.5,170.5C 169.5,157.5 169.5,144.5 169.5,131.5C 170.11,129.566 171.11,127.899 172.5,126.5 Z"/></g>
<g><path style="opacity:0.933" fill="#103bd2" d="M 333.5,126.5 C 335.771,128.612 337.104,131.279 337.5,134.5C 337.5,146.167 337.5,157.833 337.5,169.5C 336.658,175.397 335.324,181.064 333.5,186.5C 333.5,166.5 333.5,146.5 333.5,126.5 Z"/></g>
<g><path style="opacity:0.912" fill="#07afea" d="M 259.5,127.5 C 259.5,133.167 259.5,138.833 259.5,144.5C 258.833,144.833 258.167,145.167 257.5,145.5C 257.5,140.167 257.5,134.833 257.5,129.5C 257.833,128.5 258.5,127.833 259.5,127.5 Z"/></g>
<g><path style="opacity:0.934" fill="#06b3eb" d="M 257.5,129.5 C 257.5,134.833 257.5,140.167 257.5,145.5C 256.609,146.11 255.609,146.443 254.5,146.5C 254.5,141.5 254.5,136.5 254.5,131.5C 255.29,130.599 256.29,129.932 257.5,129.5 Z"/></g>
<g><path style="opacity:0.928" fill="#06b8ec" d="M 254.5,131.5 C 254.5,136.5 254.5,141.5 254.5,146.5C 253.486,147.674 252.153,148.34 250.5,148.5C 250.5,143.833 250.5,139.167 250.5,134.5C 251.795,133.512 253.128,132.512 254.5,131.5 Z"/></g>
<g><path style="opacity:0.929" fill="#01f7f9" d="M 169.5,131.5 C 169.5,144.5 169.5,157.5 169.5,170.5C 168.262,168.786 167.595,166.786 167.5,164.5C 167.5,155.167 167.5,145.833 167.5,136.5C 167.796,134.597 168.463,132.93 169.5,131.5 Z"/></g>
<g><path style="opacity:0.729" fill="#1136d1" d="M 337.5,134.5 C 341.36,146.146 341.36,157.813 337.5,169.5C 337.5,157.833 337.5,146.167 337.5,134.5 Z"/></g>
<g><path style="opacity:0.922" fill="#05beed" d="M 250.5,134.5 C 250.5,139.167 250.5,143.833 250.5,148.5C 249.486,149.674 248.153,150.34 246.5,150.5C 246.5,146.167 246.5,141.833 246.5,137.5C 247.795,136.512 249.128,135.512 250.5,134.5 Z"/></g>
<g><path style="opacity:0.73" fill="#00fbfa" d="M 167.5,136.5 C 167.5,145.833 167.5,155.167 167.5,164.5C 163.5,155.167 163.5,145.833 167.5,136.5 Z"/></g>
<g><path style="opacity:0.915" fill="#05c4ef" d="M 246.5,137.5 C 246.5,141.833 246.5,146.167 246.5,150.5C 245.486,151.674 244.153,152.34 242.5,152.5C 242.5,148.5 242.5,144.5 242.5,140.5C 243.833,139.5 245.167,138.5 246.5,137.5 Z"/></g>
<g><path style="opacity:0.895" fill="#04cbf0" d="M 242.5,140.5 C 242.5,144.5 242.5,148.5 242.5,152.5C 241.035,153.737 239.368,154.737 237.5,155.5C 237.5,151.833 237.5,148.167 237.5,144.5C 239.142,143.197 240.809,141.864 242.5,140.5 Z"/></g>
<g><path style="opacity:0.908" fill="#04d1f1" d="M 237.5,144.5 C 237.5,148.167 237.5,151.833 237.5,155.5C 236.167,156.167 234.833,156.833 233.5,157.5C 233.5,154.167 233.5,150.833 233.5,147.5C 234.833,146.5 236.167,145.5 237.5,144.5 Z"/></g>
<g><path style="opacity:0.869" fill="#03d7f3" d="M 233.5,147.5 C 233.5,150.833 233.5,154.167 233.5,157.5C 232.167,158.167 230.833,158.833 229.5,159.5C 229.5,156.833 229.5,154.167 229.5,151.5C 230.5,149.833 231.833,148.5 233.5,147.5 Z"/></g>
<g><path style="opacity:0.864" fill="#02ddf4" d="M 229.5,151.5 C 229.5,154.167 229.5,156.833 229.5,159.5C 228.167,160.167 226.833,160.833 225.5,161.5C 225.5,159.167 225.5,156.833 225.5,154.5C 226.262,152.738 227.596,151.738 229.5,151.5 Z"/></g>
<g><path style="opacity:0.915" fill="#00fdfa" d="M 340.5,241.5 C 333.833,239.167 327.167,236.833 320.5,234.5C 306.395,206.96 292.895,179.293 280,151.5C 295.815,170.469 311.148,189.803 326,209.5C 333.284,219.066 338.117,229.733 340.5,241.5 Z"/></g>
<g><path style="opacity:0.849" fill="#02e3f5" d="M 225.5,154.5 C 225.5,156.833 225.5,159.167 225.5,161.5C 224.167,162.167 222.833,162.833 221.5,163.5C 221.5,161.5 221.5,159.5 221.5,157.5C 222.795,156.512 224.128,155.512 225.5,154.5 Z"/></g>
<g><path style="opacity:0.814" fill="#01eaf6" d="M 221.5,157.5 C 221.5,159.5 221.5,161.5 221.5,163.5C 220.167,164.167 218.833,164.833 217.5,165.5C 217.5,163.833 217.5,162.167 217.5,160.5C 218.833,159.5 220.167,158.5 221.5,157.5 Z"/></g>
<g><path style="opacity:0.918" fill="#04d2f1" d="M 183.5,158.5 C 184.87,161.619 185.87,164.952 186.5,168.5C 186.5,177.833 186.5,187.167 186.5,196.5C 184.738,195.738 183.738,194.404 183.5,192.5C 183.5,181.167 183.5,169.833 183.5,158.5 Z"/></g>
<g><path style="opacity:0.727" fill="#01f0f8" d="M 217.5,160.5 C 217.5,162.167 217.5,163.833 217.5,165.5C 216.167,166.167 214.833,166.833 213.5,167.5C 213.5,166.5 213.5,165.5 213.5,164.5C 214.5,162.833 215.833,161.5 217.5,160.5 Z"/></g>
<g><path style="opacity:0.526" fill="#00f7f9" d="M 213.5,164.5 C 213.5,165.5 213.5,166.5 213.5,167.5C 211.287,168.773 208.954,169.773 206.5,170.5C 208.219,167.781 210.553,165.781 213.5,164.5 Z"/></g>
<g><path style="opacity:0.941" fill="#04cbf0" d="M 186.5,168.5 C 187.89,169.899 188.89,171.566 189.5,173.5C 189.5,182.5 189.5,191.5 189.5,200.5C 187.738,199.738 186.738,198.404 186.5,196.5C 186.5,187.167 186.5,177.833 186.5,168.5 Z"/></g>
<g><path style="opacity:0.031" fill="#00fefa" d="M 206.5,170.5 C 205.833,171.167 205.833,171.167 206.5,170.5 Z"/></g>
<g><path style="opacity:0.925" fill="#05c4ef" d="M 189.5,173.5 C 191.008,175.181 192.008,177.181 192.5,179.5C 192.5,187.833 192.5,196.167 192.5,204.5C 190.738,203.738 189.738,202.404 189.5,200.5C 189.5,191.5 189.5,182.5 189.5,173.5 Z"/></g>
<g><path style="opacity:0.756" fill="#0e53d7" d="M 320.5,174.5 C 320.5,179.5 320.5,184.5 320.5,189.5C 319.038,188.542 317.705,187.376 316.5,186C 317.925,182.1 319.258,178.267 320.5,174.5 Z"/></g>
<g><path style="opacity:0.929" fill="#05beee" d="M 192.5,179.5 C 193.674,180.514 194.34,181.847 194.5,183.5C 194.5,191.5 194.5,199.5 194.5,207.5C 193.599,206.71 192.932,205.71 192.5,204.5C 192.5,196.167 192.5,187.833 192.5,179.5 Z"/></g>
<g><path style="opacity:0.927" fill="#06b9ec" d="M 194.5,183.5 C 196.008,185.181 197.008,187.181 197.5,189.5C 197.5,196.833 197.5,204.167 197.5,211.5C 196.512,210.205 195.512,208.872 194.5,207.5C 194.5,199.5 194.5,191.5 194.5,183.5 Z"/></g>
<g><path style="opacity:0.971" fill="#089be6" d="M 249.5,183.5 C 250.167,183.5 250.833,183.5 251.5,183.5C 251.5,192.167 251.5,200.833 251.5,209.5C 250.833,209.5 250.167,209.5 249.5,209.5C 249.5,200.833 249.5,192.167 249.5,183.5 Z"/></g>
<g><path style="opacity:0.959" fill="#098be3" d="M 251.5,183.5 C 252.492,183.328 253.158,183.662 253.5,184.5C 253.5,192.833 253.5,201.167 253.5,209.5C 252.833,209.5 252.167,209.5 251.5,209.5C 251.5,200.833 251.5,192.167 251.5,183.5 Z"/></g>
<g><path style="opacity:0.98" fill="#06b0ea" d="M 249.5,183.5 C 249.5,192.167 249.5,200.833 249.5,209.5C 248.209,209.737 247.209,209.404 246.5,208.5C 246.5,200.5 246.5,192.5 246.5,184.5C 247.609,184.443 248.609,184.11 249.5,183.5 Z"/></g>
<g><path style="opacity:0.96" fill="#0a7bdf" d="M 253.5,184.5 C 254.167,184.5 254.833,184.5 255.5,184.5C 255.5,192.5 255.5,200.5 255.5,208.5C 255.158,209.338 254.492,209.672 253.5,209.5C 253.5,201.167 253.5,192.833 253.5,184.5 Z"/></g>
<g><path style="opacity:0.959" fill="#04c6ef" d="M 246.5,184.5 C 246.5,192.5 246.5,200.5 246.5,208.5C 245.508,208.672 244.842,208.338 244.5,207.5C 244.5,200.167 244.5,192.833 244.5,185.5C 245.167,185.167 245.833,184.833 246.5,184.5 Z"/></g>
<g><path style="opacity:0.973" fill="#0c6bdc" d="M 255.5,184.5 C 256.167,184.833 256.833,185.167 257.5,185.5C 257.5,192.833 257.5,200.167 257.5,207.5C 257.158,208.338 256.492,208.672 255.5,208.5C 255.5,200.5 255.5,192.5 255.5,184.5 Z"/></g>
<g><path style="opacity:0.923" fill="#03d6f2" d="M 244.5,185.5 C 244.5,192.833 244.5,200.167 244.5,207.5C 243.508,207.672 242.842,207.338 242.5,206.5C 242.5,200.167 242.5,193.833 242.5,187.5C 242.833,186.5 243.5,185.833 244.5,185.5 Z"/></g>
<g><path style="opacity:0.938" fill="#0d5bd9" d="M 257.5,185.5 C 258.5,185.833 259.167,186.5 259.5,187.5C 259.5,193.833 259.5,200.167 259.5,206.5C 259.158,207.338 258.492,207.672 257.5,207.5C 257.5,200.167 257.5,192.833 257.5,185.5 Z"/></g>
<g><path style="opacity:0.897" fill="#02e6f6" d="M 242.5,187.5 C 242.5,193.833 242.5,200.167 242.5,206.5C 241.094,206.027 240.427,205.027 240.5,203.5C 240.5,198.833 240.5,194.167 240.5,189.5C 240.833,188.5 241.5,187.833 242.5,187.5 Z"/></g>
<g><path style="opacity:0.916" fill="#0f4bd5" d="M 259.5,187.5 C 260.5,187.833 261.167,188.5 261.5,189.5C 261.5,194.5 261.5,199.5 261.5,204.5C 261.167,205.5 260.5,206.167 259.5,206.5C 259.5,200.167 259.5,193.833 259.5,187.5 Z"/></g>
<g><path style="opacity:0.917" fill="#06b3eb" d="M 197.5,189.5 C 198.674,190.514 199.34,191.847 199.5,193.5C 199.5,200.167 199.5,206.833 199.5,213.5C 198.5,213.167 197.833,212.5 197.5,211.5C 197.5,204.167 197.5,196.833 197.5,189.5 Z"/></g>
<g><path style="opacity:0.66" fill="#00f6f9" d="M 240.5,189.5 C 240.5,194.167 240.5,198.833 240.5,203.5C 239.883,203.389 239.383,203.056 239,202.5C 238.833,200.667 238.667,198.833 238.5,197C 238.3,194.134 238.967,191.634 240.5,189.5 Z"/></g>
<g><path style="opacity:0.728" fill="#103cd2" d="M 261.5,189.5 C 265.209,194.453 265.209,199.453 261.5,204.5C 261.5,199.5 261.5,194.5 261.5,189.5 Z"/></g>
<g><path style="opacity:0.908" fill="#07ace9" d="M 199.5,193.5 C 201.341,195.849 202.674,198.515 203.5,201.5C 203.5,207.167 203.5,212.833 203.5,218.5C 201.457,217.421 200.124,215.754 199.5,213.5C 199.5,206.833 199.5,200.167 199.5,193.5 Z"/></g>
<g><path style="opacity:0.35" fill="#1041d3" d="M 177.5,198.5 C 176.5,198.5 175.5,198.5 174.5,198.5C 175.26,196.015 176.26,196.015 177.5,198.5 Z"/></g>
<g><path style="opacity:0.786" fill="#0f47d5" d="M 174.5,198.5 C 175.5,198.5 176.5,198.5 177.5,198.5C 178.167,198.5 178.5,198.833 178.5,199.5C 177.292,200.234 175.959,200.567 174.5,200.5C 174.5,199.833 174.5,199.167 174.5,198.5 Z"/></g>
<g><path style="opacity:0.899" fill="#0f4dd6" d="M 178.5,199.5 C 178.833,200.167 179.167,200.833 179.5,201.5C 177.703,202.73 175.703,203.396 173.5,203.5C 173.263,202.209 173.596,201.209 174.5,200.5C 175.959,200.567 177.292,200.234 178.5,199.5 Z"/></g>
<g><path style="opacity:0.862" fill="#0e54d7" d="M 179.5,201.5 C 180.5,201.833 181.167,202.5 181.5,203.5C 178.402,204.216 175.402,205.216 172.5,206.5C 172.557,205.391 172.89,204.391 173.5,203.5C 175.703,203.396 177.703,202.73 179.5,201.5 Z"/></g>
<g><path style="opacity:0.899" fill="#07a5e8" d="M 203.5,201.5 C 205.008,203.181 206.008,205.181 206.5,207.5C 206.5,212.5 206.5,217.5 206.5,222.5C 205.026,221.564 204.026,220.23 203.5,218.5C 203.5,212.833 203.5,207.167 203.5,201.5 Z"/></g>
<g><path style="opacity:0.911" fill="#0e5ad9" d="M 181.5,203.5 C 182.167,203.5 182.5,203.833 182.5,204.5C 178.979,206.229 175.313,207.562 171.5,208.5C 171.833,207.833 172.167,207.167 172.5,206.5C 175.402,205.216 178.402,204.216 181.5,203.5 Z"/></g>
<g><path style="opacity:0.878" fill="#0d60da" d="M 182.5,204.5 C 183.5,204.833 184.167,205.5 184.5,206.5C 180.167,207.833 175.833,209.167 171.5,210.5C 171.5,209.833 171.5,209.167 171.5,208.5C 175.313,207.562 178.979,206.229 182.5,204.5 Z"/></g>
<g><path style="opacity:0.901" fill="#0d66db" d="M 184.5,206.5 C 185.167,206.5 185.5,206.833 185.5,207.5C 180.613,209.777 175.613,211.777 170.5,213.5C 170.557,212.391 170.89,211.391 171.5,210.5C 175.833,209.167 180.167,207.833 184.5,206.5 Z"/></g>
<g><path style="opacity:0.968" fill="#0c6ddc" d="M 185.5,207.5 C 185.833,208.167 186.167,208.833 186.5,209.5C 181.38,212.06 176.046,214.06 170.5,215.5C 170.5,214.833 170.5,214.167 170.5,213.5C 175.613,211.777 180.613,209.777 185.5,207.5 Z"/></g>
<g><path style="opacity:0.93" fill="#0b73de" d="M 186.5,209.5 C 187.5,209.833 188.167,210.5 188.5,211.5C 182.064,213.551 175.731,215.885 169.5,218.5C 169.557,217.391 169.89,216.391 170.5,215.5C 176.046,214.06 181.38,212.06 186.5,209.5 Z"/></g>
<g><path style="opacity:0.913" fill="#089fe7" d="M 206.5,207.5 C 207.674,208.514 208.34,209.847 208.5,211.5C 208.5,215.833 208.5,220.167 208.5,224.5C 207.5,224.167 206.833,223.5 206.5,222.5C 206.5,217.5 206.5,212.5 206.5,207.5 Z"/></g>
<g><path style="opacity:0.965" fill="#0b79df" d="M 188.5,211.5 C 187.89,212.391 187.557,213.391 187.5,214.5C 181.345,215.977 175.345,217.977 169.5,220.5C 169.5,219.833 169.5,219.167 169.5,218.5C 175.731,215.885 182.064,213.551 188.5,211.5 Z"/></g>
<g><path style="opacity:0.873" fill="#089ae6" d="M 208.5,211.5 C 210.008,213.181 211.008,215.181 211.5,217.5C 211.5,221.167 211.5,224.833 211.5,228.5C 209.738,227.738 208.738,226.404 208.5,224.5C 208.5,220.167 208.5,215.833 208.5,211.5 Z"/></g>
<g><path style="opacity:0.945" fill="#0a80e0" d="M 187.5,214.5 C 187.167,215.167 186.833,215.833 186.5,216.5C 180.495,218.835 174.495,221.168 168.5,223.5C 168.263,222.209 168.596,221.209 169.5,220.5C 175.345,217.977 181.345,215.977 187.5,214.5 Z"/></g>
<g><path style="opacity:0.95" fill="#0a86e2" d="M 186.5,216.5 C 186.737,217.791 186.404,218.791 185.5,219.5C 179.438,221.298 173.438,223.298 167.5,225.5C 167.833,224.833 168.167,224.167 168.5,223.5C 174.495,221.168 180.495,218.835 186.5,216.5 Z"/></g>
<g><path style="opacity:0.857" fill="#0993e4" d="M 211.5,217.5 C 213.008,219.181 214.008,221.181 214.5,223.5C 214.5,226.5 214.5,229.5 214.5,232.5C 213.026,231.564 212.026,230.23 211.5,228.5C 211.5,224.833 211.5,221.167 211.5,217.5 Z"/></g>
<g><path style="opacity:0.96" fill="#098ce3" d="M 185.5,219.5 C 185.5,220.167 185.5,220.833 185.5,221.5C 179.5,223.5 173.5,225.5 167.5,227.5C 167.5,226.833 167.5,226.167 167.5,225.5C 173.438,223.298 179.438,221.298 185.5,219.5 Z"/></g>
<g><path style="opacity:0.955" fill="#0992e4" d="M 185.5,221.5 C 185.672,222.492 185.338,223.158 184.5,223.5C 178.934,225.783 173.267,227.783 167.5,229.5C 167.5,228.833 167.5,228.167 167.5,227.5C 173.5,225.5 179.5,223.5 185.5,221.5 Z"/></g>
<g><path style="opacity:0.956" fill="#0898e6" d="M 184.5,223.5 C 184.5,224.5 184.5,225.5 184.5,226.5C 178.5,228.5 172.5,230.5 166.5,232.5C 166.263,231.209 166.596,230.209 167.5,229.5C 173.267,227.783 178.934,225.783 184.5,223.5 Z"/></g>
<g><path style="opacity:0.846" fill="#098ce3" d="M 214.5,223.5 C 216.008,225.181 217.008,227.181 217.5,229.5C 217.5,231.5 217.5,233.5 217.5,235.5C 216.167,234.833 215.167,233.833 214.5,232.5C 214.5,229.5 214.5,226.5 214.5,223.5 Z"/></g>
<g><path style="opacity:0.922" fill="#00fdfa" d="M 168.5,264.5 C 173.617,262.774 178.617,260.774 183.5,258.5C 191.099,268.604 201.099,271.771 213.5,268C 215.788,267.178 218.122,266.511 220.5,266C 246.121,252.029 272.121,239.029 298.5,227C 276.692,245.812 254.026,263.479 230.5,280C 209.642,291.632 190.476,289.466 173,273.5C 170.962,270.757 169.462,267.757 168.5,264.5 Z"/></g>
<g><path style="opacity:0.951" fill="#07a5e8" d="M 183.5,228.5 C 183.5,229.167 183.5,229.833 183.5,230.5C 177.5,232.833 171.5,235.167 165.5,237.5C 165.263,236.209 165.596,235.209 166.5,234.5C 172.263,232.786 177.93,230.786 183.5,228.5 Z"/></g>
<g><path style="opacity:0.708" fill="#0a86e2" d="M 217.5,229.5 C 218.906,229.973 219.573,230.973 219.5,232.5C 219.5,234.5 219.5,236.5 219.5,238.5C 218.094,238.027 217.427,237.027 217.5,235.5C 217.5,233.5 217.5,231.5 217.5,229.5 Z"/></g>
<g><path style="opacity:1" fill="#089fe7" d="M 184.5,226.5 C 184.672,227.492 184.338,228.158 183.5,228.5C 177.93,230.786 172.263,232.786 166.5,234.5C 166.5,233.833 166.5,233.167 166.5,232.5C 172.5,230.5 178.5,228.5 184.5,226.5 Z"/></g>
<g><path style="opacity:0.938" fill="#07abe9" d="M 183.5,230.5 C 183.443,231.609 183.11,232.609 182.5,233.5C 176.737,235.214 171.07,237.214 165.5,239.5C 165.5,238.833 165.5,238.167 165.5,237.5C 171.5,235.167 177.5,232.833 183.5,230.5 Z"/></g>
<g><path style="opacity:0.692" fill="#0a80e1" d="M 219.5,232.5 C 221.07,235.314 222.403,238.314 223.5,241.5C 223.5,242.167 223.5,242.833 223.5,243.5C 222.197,241.858 220.864,240.191 219.5,238.5C 219.5,236.5 219.5,234.5 219.5,232.5 Z"/></g>
<g><path style="opacity:0.972" fill="#06b1eb" d="M 182.5,233.5 C 182.5,234.167 182.5,234.833 182.5,235.5C 176.93,237.786 171.263,239.786 165.5,241.5C 165.5,240.833 165.5,240.167 165.5,239.5C 171.07,237.214 176.737,235.214 182.5,233.5 Z"/></g>
<g><path style="opacity:0.92" fill="#06b8ec" d="M 182.5,235.5 C 182.443,236.609 182.11,237.609 181.5,238.5C 175.737,240.214 170.07,242.214 164.5,244.5C 164.263,243.209 164.596,242.209 165.5,241.5C 171.263,239.786 176.93,237.786 182.5,235.5 Z"/></g>
<g><path style="opacity:0.944" fill="#01f0f8" d="M 320.5,236.5 C 327.386,238.609 334.052,241.276 340.5,244.5C 340.5,245.167 340.5,245.833 340.5,246.5C 334.282,243.558 327.949,240.891 321.5,238.5C 321.167,237.833 320.833,237.167 320.5,236.5 Z"/></g>
<g><path style="opacity:1" fill="#00f6f9" d="M 320.5,234.5 C 327.167,236.833 333.833,239.167 340.5,241.5C 340.5,242.5 340.5,243.5 340.5,244.5C 334.052,241.276 327.386,238.609 320.5,236.5C 320.5,235.833 320.5,235.167 320.5,234.5 Z"/></g>
<g><path style="opacity:0.918" fill="#05beed" d="M 181.5,238.5 C 181.5,239.167 181.5,239.833 181.5,240.5C 175.737,242.214 170.07,244.214 164.5,246.5C 164.5,245.833 164.5,245.167 164.5,244.5C 170.07,242.214 175.737,240.214 181.5,238.5 Z"/></g>
<g><path style="opacity:0.95" fill="#01eaf6" d="M 321.5,238.5 C 327.949,240.891 334.282,243.558 340.5,246.5C 340.5,247.167 340.5,247.833 340.5,248.5C 334.282,245.558 327.949,242.891 321.5,240.5C 321.5,239.833 321.5,239.167 321.5,238.5 Z"/></g>
<g><path style="opacity:0.928" fill="#05c4ef" d="M 181.5,240.5 C 181.5,241.167 181.5,241.833 181.5,242.5C 175.833,244.5 170.167,246.5 164.5,248.5C 164.5,247.833 164.5,247.167 164.5,246.5C 170.07,244.214 175.737,242.214 181.5,240.5 Z"/></g>
<g><path style="opacity:0.936" fill="#02e3f5" d="M 321.5,240.5 C 327.949,242.891 334.282,245.558 340.5,248.5C 340.5,249.167 340.5,249.833 340.5,250.5C 334.5,248.167 328.5,245.833 322.5,243.5C 321.89,242.609 321.557,241.609 321.5,240.5 Z"/></g>
<g><path style="opacity:0.344" fill="#0b79df" d="M 223.5,241.5 C 224.848,242.527 225.348,243.86 225,245.5C 224.283,244.956 223.783,244.289 223.5,243.5C 223.5,242.833 223.5,242.167 223.5,241.5 Z"/></g>
<g><path style="opacity:0.897" fill="#04cbf0" d="M 181.5,242.5 C 181.737,243.791 181.404,244.791 180.5,245.5C 175.117,246.734 170.117,248.734 165.5,251.5C 164.596,250.791 164.263,249.791 164.5,248.5C 170.167,246.5 175.833,244.5 181.5,242.5 Z"/></g>
<g><path style="opacity:0.947" fill="#03ddf4" d="M 322.5,243.5 C 328.5,245.833 334.5,248.167 340.5,250.5C 340.5,251.167 340.5,251.833 340.5,252.5C 334.5,250.167 328.5,247.833 322.5,245.5C 322.5,244.833 322.5,244.167 322.5,243.5 Z"/></g>
<g><path style="opacity:0.999" fill="#04d1f1" d="M 180.5,245.5 C 180.5,246.167 180.5,246.833 180.5,247.5C 175.426,248.969 170.426,250.636 165.5,252.5C 165.5,252.167 165.5,251.833 165.5,251.5C 170.117,248.734 175.117,246.734 180.5,245.5 Z"/></g>
<g><path style="opacity:0.949" fill="#03d7f2" d="M 322.5,245.5 C 328.5,247.833 334.5,250.167 340.5,252.5C 340.167,253.167 339.833,253.833 339.5,254.5C 333.952,251.893 328.285,249.56 322.5,247.5C 322.5,246.833 322.5,246.167 322.5,245.5 Z"/></g>
<g><path style="opacity:0.984" fill="#03d7f2" d="M 180.5,247.5 C 180.5,248.167 180.5,248.833 180.5,249.5C 175.562,251.368 170.562,253.035 165.5,254.5C 165.5,253.833 165.5,253.167 165.5,252.5C 170.426,250.636 175.426,248.969 180.5,247.5 Z"/></g>
<g><path style="opacity:0.958" fill="#04d1f1" d="M 322.5,247.5 C 328.285,249.56 333.952,251.893 339.5,254.5C 339.5,255.167 339.5,255.833 339.5,256.5C 333.952,253.893 328.285,251.56 322.5,249.5C 322.5,248.833 322.5,248.167 322.5,247.5 Z"/></g>
<g><path style="opacity:0.915" fill="#02ddf4" d="M 180.5,249.5 C 181.338,249.842 181.672,250.508 181.5,251.5C 176.167,253.167 170.833,254.833 165.5,256.5C 165.5,255.833 165.5,255.167 165.5,254.5C 170.562,253.035 175.562,251.368 180.5,249.5 Z"/></g>
<g><path style="opacity:0.97" fill="#04cbf0" d="M 322.5,249.5 C 328.285,251.56 333.952,253.893 339.5,256.5C 339.167,257.167 338.833,257.833 338.5,258.5C 333.167,256.167 327.833,253.833 322.5,251.5C 322.5,250.833 322.5,250.167 322.5,249.5 Z"/></g>
<g><path style="opacity:0.938" fill="#02e4f5" d="M 181.5,251.5 C 181.5,252.167 181.5,252.833 181.5,253.5C 176.383,255.226 171.383,257.226 166.5,259.5C 166.443,258.391 166.11,257.391 165.5,256.5C 170.833,254.833 176.167,253.167 181.5,251.5 Z"/></g>
<g><path style="opacity:0.943" fill="#05c4ef" d="M 322.5,251.5 C 327.833,253.833 333.167,256.167 338.5,258.5C 338.672,259.492 338.338,260.158 337.5,260.5C 332.469,257.655 327.136,255.322 321.5,253.5C 321.833,252.833 322.167,252.167 322.5,251.5 Z"/></g>
<g><path style="opacity:0.919" fill="#01eaf6" d="M 181.5,253.5 C 181.833,254.167 182.167,254.833 182.5,255.5C 177.117,256.734 172.117,258.734 167.5,261.5C 166.662,261.158 166.328,260.492 166.5,259.5C 171.383,257.226 176.383,255.226 181.5,253.5 Z"/></g>
<g><path style="opacity:0.971" fill="#05beed" d="M 321.5,253.5 C 327.136,255.322 332.469,257.655 337.5,260.5C 337.5,260.833 337.5,261.167 337.5,261.5C 332.089,259.697 326.756,257.697 321.5,255.5C 321.5,254.833 321.5,254.167 321.5,253.5 Z"/></g>
<g><path style="opacity:0.974" fill="#01f0f8" d="M 182.5,255.5 C 182.5,256.167 182.5,256.833 182.5,257.5C 177.562,259.368 172.562,261.035 167.5,262.5C 167.5,262.167 167.5,261.833 167.5,261.5C 172.117,258.734 177.117,256.734 182.5,255.5 Z"/></g>
<g><path style="opacity:0.937" fill="#06b8ec" d="M 321.5,255.5 C 326.756,257.697 332.089,259.697 337.5,261.5C 337.672,262.492 337.338,263.158 336.5,263.5C 331.237,261.301 325.904,259.301 320.5,257.5C 320.833,256.833 321.167,256.167 321.5,255.5 Z"/></g>
<g><path style="opacity:0.977" fill="#06b2eb" d="M 320.5,258.5 C 320.5,258.167 320.5,257.833 320.5,257.5C 325.904,259.301 331.237,261.301 336.5,263.5C 336.672,264.492 336.338,265.158 335.5,265.5C 330.458,263.283 325.458,260.949 320.5,258.5 Z"/></g>
<g><path style="opacity:0.961" fill="#07ace9" d="M 320.5,258.5 C 325.458,260.949 330.458,263.283 335.5,265.5C 335.672,266.492 335.338,267.158 334.5,267.5C 329.415,265.36 324.415,263.027 319.5,260.5C 319.328,259.508 319.662,258.842 320.5,258.5 Z"/></g>
<g><path style="opacity:0.954" fill="#07a5e8" d="M 319.5,260.5 C 324.415,263.027 329.415,265.36 334.5,267.5C 334.5,267.833 334.5,268.167 334.5,268.5C 328.737,266.786 323.07,264.786 317.5,262.5C 317.833,261.5 318.5,260.833 319.5,260.5 Z"/></g>
<g><path style="opacity:1" fill="#00f6f9" d="M 182.5,257.5 C 183.167,257.5 183.5,257.833 183.5,258.5C 178.617,260.774 173.617,262.774 168.5,264.5C 167.662,264.158 167.328,263.492 167.5,262.5C 172.562,261.035 177.562,259.368 182.5,257.5 Z"/></g>
<g><path style="opacity:0.985" fill="#0e5ad9" d="M 265.5,263.5 C 281.5,270.5 297.5,277.5 313.5,284.5C 312.5,284.5 311.5,284.5 310.5,284.5C 294.414,278.027 278.414,271.361 262.5,264.5C 263.221,262.618 264.221,262.285 265.5,263.5 Z"/></g>
<g><path style="opacity:0.95" fill="#0d60da" d="M 265.5,263.5 C 268.903,263.851 272.237,264.518 275.5,265.5C 289.121,271.489 302.788,277.489 316.5,283.5C 315.391,283.557 314.391,283.89 313.5,284.5C 297.5,277.5 281.5,270.5 265.5,263.5 Z"/></g>
<g><path style="opacity:0.938" fill="#0898e6" d="M 316.5,263.5 C 321.833,265.833 327.167,268.167 332.5,270.5C 332.672,271.492 332.338,272.158 331.5,272.5C 325.952,269.893 320.285,267.56 314.5,265.5C 314.833,264.5 315.5,263.833 316.5,263.5 Z"/></g>
<g><path style="opacity:0.971" fill="#0e54d7" d="M 262.5,264.5 C 278.414,271.361 294.414,278.027 310.5,284.5C 309.432,285.434 308.099,285.768 306.5,285.5C 291.167,278.833 275.833,272.167 260.5,265.5C 261.167,265.167 261.833,264.833 262.5,264.5 Z"/></g>
<g><path style="opacity:0.971" fill="#0f4ed6" d="M 260.5,265.5 C 275.833,272.167 291.167,278.833 306.5,285.5C 305.391,285.557 304.391,285.89 303.5,286.5C 288.679,279.928 273.679,273.595 258.5,267.5C 258.833,266.5 259.5,265.833 260.5,265.5 Z"/></g>
<g><path style="opacity:0.964" fill="#0992e4" d="M 314.5,265.5 C 320.285,267.56 325.952,269.893 331.5,272.5C 331.5,273.167 331.167,273.5 330.5,273.5C 324.515,271.733 318.848,269.4 313.5,266.5C 313.5,265.833 313.833,265.5 314.5,265.5 Z"/></g>
<g><path style="opacity:0.943" fill="#0d66db" d="M 275.5,265.5 C 279.521,266.503 283.521,267.503 287.5,268.5C 297.833,273.167 308.167,277.833 318.5,282.5C 317.833,282.833 317.167,283.167 316.5,283.5C 302.788,277.489 289.121,271.489 275.5,265.5 Z"/></g>
<g><path style="opacity:0.931" fill="#098ce3" d="M 313.5,266.5 C 318.848,269.4 324.515,271.733 330.5,273.5C 330.167,274.5 329.5,275.167 328.5,275.5C 322.713,273.106 317.046,270.44 311.5,267.5C 311.842,266.662 312.508,266.328 313.5,266.5 Z"/></g>
<g><path style="opacity:1" fill="#089fe7" d="M 316.5,263.5 C 316.5,262.833 316.833,262.5 317.5,262.5C 323.07,264.786 328.737,266.786 334.5,268.5C 334.167,269.5 333.5,270.167 332.5,270.5C 327.167,268.167 321.833,265.833 316.5,263.5 Z"/></g>
<g><path style="opacity:0.94" fill="#0f47d5" d="M 258.5,267.5 C 273.679,273.595 288.679,279.928 303.5,286.5C 300.763,286.599 298.096,286.265 295.5,285.5C 282.833,279.833 270.167,274.167 257.5,268.5C 257.5,267.833 257.833,267.5 258.5,267.5 Z"/></g>
<g><path style="opacity:0.931" fill="#0a86e2" d="M 311.5,267.5 C 317.046,270.44 322.713,273.106 328.5,275.5C 328.5,276.167 328.167,276.5 327.5,276.5C 320.927,274.204 314.594,271.538 308.5,268.5C 309.391,267.89 310.391,267.557 311.5,267.5 Z"/></g>
<g><path style="opacity:0.951" fill="#1041d3" d="M 257.5,268.5 C 270.167,274.167 282.833,279.833 295.5,285.5C 292.941,285.802 290.607,285.468 288.5,284.5C 277.74,279.463 266.74,274.796 255.5,270.5C 255.833,269.5 256.5,268.833 257.5,268.5 Z"/></g>
<g><path style="opacity:0.931" fill="#0c6cdc" d="M 287.5,268.5 C 290.206,268.575 292.873,268.908 295.5,269.5C 303.927,273.537 312.594,277.204 321.5,280.5C 320.71,281.401 319.71,282.068 318.5,282.5C 308.167,277.833 297.833,273.167 287.5,268.5 Z"/></g>
<g><path style="opacity:0.946" fill="#0a80e0" d="M 308.5,268.5 C 314.594,271.538 320.927,274.204 327.5,276.5C 327.027,277.906 326.027,278.573 324.5,278.5C 318.252,275.307 311.919,272.307 305.5,269.5C 306.609,269.443 307.609,269.11 308.5,268.5 Z"/></g>
<g><path style="opacity:0.909" fill="#0b73de" d="M 295.5,269.5 C 297.621,269.325 299.621,269.659 301.5,270.5C 308.833,273.5 316.167,276.5 323.5,279.5C 323.158,280.338 322.492,280.672 321.5,280.5C 312.594,277.204 303.927,273.537 295.5,269.5 Z"/></g>
<g><path style="opacity:0.923" fill="#0b79df" d="M 301.5,270.5 C 302.568,269.566 303.901,269.232 305.5,269.5C 311.919,272.307 318.252,275.307 324.5,278.5C 324.5,279.167 324.167,279.5 323.5,279.5C 316.167,276.5 308.833,273.5 301.5,270.5 Z"/></g>
<g><path style="opacity:0.963" fill="#103bd2" d="M 255.5,270.5 C 266.74,274.796 277.74,279.463 288.5,284.5C 284.878,284.678 281.544,284.011 278.5,282.5C 270.5,278.833 262.5,275.167 254.5,271.5C 254.5,270.833 254.833,270.5 255.5,270.5 Z"/></g>
<g><path style="opacity:0.824" fill="#1134d1" d="M 254.5,271.5 C 262.5,275.167 270.5,278.833 278.5,282.5C 269.414,280.979 260.414,278.979 251.5,276.5C 250.068,276.267 249.568,275.6 250,274.5C 251.271,273.117 252.771,272.117 254.5,271.5 Z"/></g>
<g><path style="opacity:0.871" fill="#1133d1" d="M 104.5,301.5 C 111.403,301.142 117.736,302.809 123.5,306.5C 122.162,309.176 120.829,311.842 119.5,314.5C 115.699,312.566 111.699,311.233 107.5,310.5C 103.338,310.649 102.672,312.149 105.5,315C 109.833,316.667 114.167,318.333 118.5,320C 123.596,324.248 124.763,329.415 122,335.5C 112.664,342.963 102.83,343.463 92.5,337C 91.4258,336.261 90.7591,335.261 90.5,334C 91.53,331.44 92.6966,328.94 94,326.5C 98.7328,330.744 104.233,332.578 110.5,332C 111.357,331.311 112.023,330.478 112.5,329.5C 111.221,327.854 109.555,326.687 107.5,326C 101.303,325.324 96.4695,322.491 93,317.5C 91.5987,308.402 95.432,303.068 104.5,301.5 Z"/></g>
<g><path style="opacity:0.879" fill="#1133d1" d="M 143.5,301.5 C 163.219,302.625 170.386,312.625 165,331.5C 157.213,341.533 147.38,344.033 135.5,339C 124.469,330.556 122.635,320.389 130,308.5C 133.975,304.931 138.475,302.597 143.5,301.5 Z M 145.5,310.5 C 154.898,312.627 158.065,318.293 155,327.5C 149.333,334.167 143.667,334.167 138,327.5C 134.822,319.173 137.322,313.506 145.5,310.5 Z"/></g>
<g><path style="opacity:0.903" fill="#1133d1" d="M 171.5,302.5 C 195.842,302.167 220.176,302.5 244.5,303.5C 246.821,311.116 248.988,318.783 251,326.5C 254.094,318.794 256.261,310.794 257.5,302.5C 261.226,302.177 264.893,302.511 268.5,303.5C 270.821,311.116 272.988,318.783 275,326.5C 277.787,319.029 280.121,311.362 282,303.5C 285.394,302.544 288.894,302.211 292.5,302.5C 289.205,315.218 285.205,327.718 280.5,340C 276.789,340.825 273.122,340.659 269.5,339.5C 267.234,331.868 265.067,324.201 263,316.5C 260.988,324.217 258.821,331.884 256.5,339.5C 252.878,340.659 249.211,340.825 245.5,340C 241.676,328.527 237.842,317.027 234,305.5C 233.506,307.134 233.34,308.801 233.5,310.5C 229.833,310.5 226.167,310.5 222.5,310.5C 222.5,320.5 222.5,330.5 222.5,340.5C 218.833,340.5 215.167,340.5 211.5,340.5C 211.5,330.5 211.5,320.5 211.5,310.5C 201.5,310.5 191.5,310.5 181.5,310.5C 181.5,313.167 181.5,315.833 181.5,318.5C 187.167,318.5 192.833,318.5 198.5,318.5C 198.5,321.5 198.5,324.5 198.5,327.5C 192.833,327.5 187.167,327.5 181.5,327.5C 181.5,331.833 181.5,336.167 181.5,340.5C 178.167,340.5 174.833,340.5 171.5,340.5C 171.5,327.833 171.5,315.167 171.5,302.5 Z"/></g>
<g><path style="opacity:0.885" fill="#1133d1" d="M 307.5,302.5 C 311.437,302.207 315.27,302.54 319,303.5C 324.038,315.74 329.204,327.906 334.5,340C 330.459,340.827 326.459,340.66 322.5,339.5C 321.926,337.941 321.26,336.441 320.5,335C 315.136,334.171 309.802,334.337 304.5,335.5C 303.833,336.833 303.167,338.167 302.5,339.5C 298.833,340.833 295.167,340.833 291.5,339.5C 296.84,327.137 302.174,314.804 307.5,302.5 Z M 312.5,314.5 C 314.601,317.797 315.935,321.463 316.5,325.5C 313.753,325.813 311.086,325.48 308.5,324.5C 309.849,321.141 311.182,317.808 312.5,314.5 Z"/></g>
<g><path style="opacity:0.924" fill="#1133d1" d="M 337.5,302.5 C 345.507,302.334 353.507,302.5 361.5,303C 369.285,306.328 372.118,312.161 370,320.5C 369.4,324.04 367.566,326.707 364.5,328.5C 366.584,332.336 368.917,336.003 371.5,339.5C 367.541,340.66 363.541,340.827 359.5,340C 357.833,337 356.167,334 354.5,331C 352.19,330.503 349.857,330.337 347.5,330.5C 347.5,333.833 347.5,337.167 347.5,340.5C 344.167,340.5 340.833,340.5 337.5,340.5C 337.5,327.833 337.5,315.167 337.5,302.5 Z M 347.5,310.5 C 350.518,310.335 353.518,310.502 356.5,311C 361.408,313.873 361.741,317.206 357.5,321C 354.183,321.498 350.85,321.665 347.5,321.5C 347.5,317.833 347.5,314.167 347.5,310.5 Z"/></g>
<g><path style="opacity:0.947" fill="#1133d1" d="M 376.5,302.5 C 386.5,302.5 396.5,302.5 406.5,302.5C 406.5,305.167 406.5,307.833 406.5,310.5C 399.833,310.5 393.167,310.5 386.5,310.5C 386.5,312.833 386.5,315.167 386.5,317.5C 392.5,317.5 398.5,317.5 404.5,317.5C 404.5,320.167 404.5,322.833 404.5,325.5C 398.5,325.5 392.5,325.5 386.5,325.5C 386.5,327.833 386.5,330.167 386.5,332.5C 393.5,332.5 400.5,332.5 407.5,332.5C 407.5,335.167 407.5,337.833 407.5,340.5C 397.167,340.5 386.833,340.5 376.5,340.5C 376.5,327.833 376.5,315.167 376.5,302.5 Z"/></g>
<g><path style="opacity:0.72" fill="#000000" d="M 95.5,360.5 C 97.1667,360.5 98.8333,360.5 100.5,360.5C 102.026,365.91 103.859,371.244 106,376.5C 108.196,371.58 110.196,366.58 112,361.5C 113.356,360.62 114.856,360.286 116.5,360.5C 114.588,367.668 112.088,374.668 109,381.5C 105.583,383.133 103.25,382.133 102,378.5C 99.5343,372.576 97.3676,366.576 95.5,360.5 Z"/></g>
<g><path style="opacity:0.734" fill="#000000" d="M 130.5,360.5 C 135.833,360.5 141.167,360.5 146.5,360.5C 146.5,362.167 146.5,363.833 146.5,365.5C 142.833,365.5 139.167,365.5 135.5,365.5C 135.5,366.833 135.5,368.167 135.5,369.5C 138.833,369.5 142.167,369.5 145.5,369.5C 145.5,370.833 145.5,372.167 145.5,373.5C 142.167,373.5 138.833,373.5 135.5,373.5C 135.5,375.167 135.5,376.833 135.5,378.5C 139.167,378.5 142.833,378.5 146.5,378.5C 146.5,379.833 146.5,381.167 146.5,382.5C 141.167,382.5 135.833,382.5 130.5,382.5C 130.5,375.167 130.5,367.833 130.5,360.5 Z"/></g>
<g><path style="opacity:0.729" fill="#000000" d="M 161.5,360.5 C 166.58,360.25 171.58,360.75 176.5,362C 180.398,366.728 180.398,371.562 176.5,376.5C 177.711,378.422 179.044,380.255 180.5,382C 175.952,383.149 172.952,381.482 171.5,377C 169.866,376.506 168.199,376.34 166.5,376.5C 166.5,378.5 166.5,380.5 166.5,382.5C 164.833,382.5 163.167,382.5 161.5,382.5C 161.5,375.167 161.5,367.833 161.5,360.5 Z M 166.5,365.5 C 169.247,365.187 171.914,365.52 174.5,366.5C 175.953,368.644 175.62,370.477 173.5,372C 171.19,372.497 168.857,372.663 166.5,372.5C 166.5,370.167 166.5,367.833 166.5,365.5 Z"/></g>
<g><path style="opacity:0.726" fill="#000000" d="M 199.5,360.5 C 203.788,359.986 207.455,361.153 210.5,364C 210.333,365.5 209.5,366.333 208,366.5C 205.001,365.015 202.168,365.181 199.5,367C 202.661,369.112 205.994,370.946 209.5,372.5C 211.989,379.184 209.655,382.851 202.5,383.5C 198.755,383.329 195.755,381.829 193.5,379C 193.78,377.605 194.447,376.438 195.5,375.5C 198.361,377.98 201.694,378.98 205.5,378.5C 205.67,377.178 205.337,376.011 204.5,375C 201.911,373.803 199.244,372.803 196.5,372C 193.262,367.017 194.262,363.183 199.5,360.5 Z"/></g>
<g><path style="opacity:0.68" fill="#000000" d="M 225.5,360.5 C 227.167,360.5 228.833,360.5 230.5,360.5C 230.5,367.833 230.5,375.167 230.5,382.5C 228.833,382.5 227.167,382.5 225.5,382.5C 225.5,375.167 225.5,367.833 225.5,360.5 Z"/></g>
<g><path style="opacity:0.735" fill="#000000" d="M 253.5,360.5 C 264.987,360.806 269.487,366.473 267,377.5C 259.944,385.478 252.944,385.478 246,377.5C 243.2,369.379 245.7,363.712 253.5,360.5 Z M 253.5,365.5 C 262.523,365.062 265.189,368.895 261.5,377C 253.59,380.31 249.756,377.81 250,369.5C 250.69,367.65 251.856,366.316 253.5,365.5 Z"/></g>
<g><path style="opacity:0.713" fill="#000000" d="M 282.5,360.5 C 284.199,360.34 285.866,360.506 287.5,361C 290.667,365.5 293.833,370 297,374.5C 297.499,369.845 297.666,365.179 297.5,360.5C 299.167,360.5 300.833,360.5 302.5,360.5C 302.5,367.833 302.5,375.167 302.5,382.5C 300.396,382.799 298.396,382.466 296.5,381.5C 293.858,377.691 291.025,374.024 288,370.5C 287.501,374.486 287.334,378.486 287.5,382.5C 285.833,382.5 284.167,382.5 282.5,382.5C 282.5,375.167 282.5,367.833 282.5,360.5 Z"/></g>
<g><path style="opacity:0.704" fill="#000000" d="M 336.5,360.5 C 341.833,360.5 347.167,360.5 352.5,360.5C 351.032,367.895 348.366,374.895 344.5,381.5C 342.833,382.833 341.167,382.833 339.5,381.5C 342.027,376.585 344.36,371.585 346.5,366.5C 344.604,365.534 342.604,365.201 340.5,365.5C 340.5,366.5 340.5,367.5 340.5,368.5C 339.167,368.5 337.833,368.5 336.5,368.5C 336.5,365.833 336.5,363.167 336.5,360.5 Z"/></g>
<g><path style="opacity:0.721" fill="#000000" d="M 390.5,360.5 C 398.535,360.034 402.535,363.867 402.5,372C 401.679,381.578 396.679,384.911 387.5,382C 383.248,376.757 382.415,370.924 385,364.5C 386.5,362.531 388.333,361.198 390.5,360.5 Z M 391.5,364.5 C 395.87,365.041 397.87,367.541 397.5,372C 398.064,375.764 396.564,378.264 393,379.5C 389.349,378.375 387.849,375.875 388.5,372C 388.106,368.832 389.106,366.332 391.5,364.5 Z"/></g>
<g><path style="opacity:0.644" fill="#000000" d="M 365.5,378.5 C 366.833,378.5 368.167,378.5 369.5,378.5C 369.884,380.665 369.217,382.332 367.5,383.5C 365.783,382.332 365.116,380.665 365.5,378.5 Z"/></g>
</svg>
